<svg width="136" height="21" viewBox="0 0 136 21" fill="none" xmlns="http://www.w3.org/2000/svg">
<mask id="mask0_1_213" style="mask-type:alpha" maskUnits="userSpaceOnUse" x="38" y="0" width="22" height="21">
<path fill-rule="evenodd" clip-rule="evenodd" d="M38.8571 0.406128H59.2044V20.751H38.8571V0.406128Z" fill="white"/>
</mask>
<g mask="url(#mask0_1_213)">
<path fill-rule="evenodd" clip-rule="evenodd" d="M49.0308 0.406189C46.2678 0.406189 45.9213 0.4179 44.8362 0.467412C43.7533 0.516802 43.0138 0.688799 42.3666 0.940313C41.6976 1.20027 41.1303 1.54814 40.5647 2.11372C39.9991 2.67935 39.6512 3.24671 39.3912 3.91572C39.1397 4.56284 38.9677 5.3024 38.9183 6.38526C38.8688 7.47039 38.8571 7.81685 38.8571 10.5799C38.8571 13.3429 38.8688 13.6893 38.9183 14.7744C38.9677 15.8573 39.1397 16.5969 39.3912 17.244C39.6512 17.913 39.9991 18.4804 40.5647 19.046C41.1303 19.6116 41.6976 19.9594 42.3666 20.2194C43.0138 20.4709 43.7533 20.6429 44.8362 20.6923C45.9213 20.7418 46.2678 20.7535 49.0308 20.7535C51.7938 20.7535 52.1402 20.7418 53.2254 20.6923C54.3082 20.6429 55.0478 20.4709 55.6949 20.2194C56.3639 19.9594 56.9313 19.6116 57.4969 19.046C58.0625 18.4804 58.4104 17.913 58.6704 17.244C58.9218 16.5969 59.0938 15.8573 59.1432 14.7744C59.1927 13.6893 59.2044 13.3429 59.2044 10.5799C59.2044 7.81685 59.1927 7.47039 59.1432 6.38526C59.0938 5.3024 58.9218 4.56284 58.6704 3.91572C58.4104 3.24671 58.0625 2.67935 57.4969 2.11372C56.9313 1.54814 56.3639 1.20027 55.6949 0.940313C55.0478 0.688799 54.3082 0.516802 53.2254 0.467412C52.1402 0.4179 51.7938 0.406189 49.0308 0.406189ZM49.031 2.24066C51.7474 2.24066 52.0692 2.25104 53.142 2.29999C54.1339 2.34522 54.6726 2.51095 55.0311 2.65028C55.506 2.83484 55.8449 3.0553 56.2009 3.41132C56.5569 3.76731 56.7773 4.10622 56.9619 4.5811C57.1012 4.93959 57.267 5.47828 57.3122 6.4702C57.3611 7.54297 57.3715 7.86476 57.3715 10.5813C57.3715 13.2977 57.3611 13.6195 57.3122 14.6923C57.267 15.6842 57.1012 16.2229 56.9619 16.5814C56.7773 17.0562 56.5569 17.3952 56.2009 17.7511C55.8449 18.1072 55.506 18.3276 55.0311 18.5122C54.6726 18.6515 54.1339 18.8173 53.142 18.8625C52.0694 18.9114 51.7476 18.9218 49.031 18.9218C46.3143 18.9218 45.9926 18.9114 44.9199 18.8625C43.928 18.8173 43.3893 18.6515 43.0308 18.5122C42.5559 18.3276 42.217 18.1072 41.861 17.7511C41.505 17.3952 41.2845 17.0562 41.1 16.5814C40.9607 16.2229 40.7949 15.6842 40.7497 14.6923C40.7007 13.6195 40.6904 13.2977 40.6904 10.5813C40.6904 7.86476 40.7007 7.54297 40.7497 6.4702C40.7949 5.47828 40.9607 4.93959 41.1 4.5811C41.2845 4.10622 41.505 3.76731 41.861 3.41132C42.217 3.0553 42.5559 2.83484 43.0308 2.65028C43.3893 2.51095 43.928 2.34522 44.9199 2.29999C45.9927 2.25104 46.3145 2.24066 49.031 2.24066Z" fill="black"/>
</g>
<path fill-rule="evenodd" clip-rule="evenodd" d="M49.0342 13.8809C47.21 13.8809 45.7312 12.4021 45.7312 10.5779C45.7312 8.75365 47.21 7.27484 49.0342 7.27484C50.8584 7.27484 52.3372 8.75365 52.3372 10.5779C52.3372 12.4021 50.8584 13.8809 49.0342 13.8809ZM49.0343 5.4892C46.224 5.4892 43.9458 7.76735 43.9458 10.5777C43.9458 13.3879 46.224 15.6661 49.0343 15.6661C51.8446 15.6661 54.1227 13.3879 54.1227 10.5777C54.1227 7.76735 51.8446 5.4892 49.0343 5.4892Z" fill="black"/>
<path fill-rule="evenodd" clip-rule="evenodd" d="M55.8185 5.0651C55.8185 5.76767 55.2489 6.33719 54.5463 6.33719C53.8438 6.33719 53.2742 5.76767 53.2742 5.0651C53.2742 4.36253 53.8438 3.79297 54.5463 3.79297C55.2489 3.79297 55.8185 4.36253 55.8185 5.0651" fill="black"/>
<path d="M96.018 0.39856H77.9139C77.2927 0.39856 76.7891 0.902155 76.7891 1.52337V19.6275C76.7891 20.2487 77.2927 20.7523 77.9139 20.7523H87.6622V12.8965H85.002V9.80056H87.648V7.54023C87.648 4.90852 89.2513 3.47662 91.5973 3.47662C92.3943 3.47899 93.1905 3.52428 93.9826 3.61231V6.35828H92.3615C91.0867 6.35828 90.8403 6.96175 90.8403 7.85089V9.81485H93.8933L93.497 12.8965H90.8403V20.7523H96.018C96.6392 20.7523 97.1428 20.2487 97.1428 19.6275V1.52337C97.1428 0.902155 96.6392 0.39856 96.018 0.39856Z" fill="black"/>
<path fill-rule="evenodd" clip-rule="evenodd" d="M133.573 3.64081C134.528 3.8978 135.281 4.65501 135.536 5.6166C136 7.35936 136 10.9957 136 10.9957C136 10.9957 136 14.6318 135.536 16.3749C135.281 17.3363 134.528 18.0935 133.573 18.3506C131.841 18.8176 124.898 18.8176 124.898 18.8176C124.898 18.8176 117.954 18.8176 116.223 18.3506C115.268 18.0935 114.515 17.3363 114.26 16.3749C113.796 14.6318 113.796 10.9957 113.796 10.9957C113.796 10.9957 113.796 7.35936 114.26 5.6166C114.515 4.65501 115.268 3.8978 116.223 3.64081C117.954 3.17377 124.898 3.17377 124.898 3.17377C124.898 3.17377 131.841 3.17377 133.573 3.64081ZM128.43 10.9949L122.627 14.2962V7.6933L128.43 10.9949Z" fill="black"/>
<path d="M6.97208 19.3712C15.3475 19.3712 19.9304 12.4258 19.9304 6.41294C19.9304 6.21754 19.9304 6.02215 19.9215 5.82675C20.8097 5.18727 21.5824 4.37904 22.1952 3.46423C21.3781 3.82838 20.4988 4.06819 19.5751 4.18365C20.5166 3.6241 21.236 2.72706 21.5824 1.66126C20.7031 2.18528 19.7261 2.55831 18.687 2.76259C17.8521 1.87442 16.6708 1.32376 15.3652 1.32376C12.8517 1.32376 10.8089 3.36654 10.8089 5.88004C10.8089 6.2353 10.8534 6.58169 10.9244 6.91919C7.14083 6.73268 3.78358 4.91194 1.53652 2.15863C1.14573 2.83364 0.92369 3.61522 0.92369 4.4501C0.92369 6.03103 1.73192 7.42544 2.9487 8.24255C2.20265 8.21591 1.501 8.01163 0.888163 7.67413C0.888163 7.69189 0.888163 7.70966 0.888163 7.7363C0.888163 9.93895 2.46021 11.7863 4.53852 12.2038C4.15661 12.3103 3.75693 12.3636 3.33949 12.3636C3.0464 12.3636 2.76219 12.337 2.48686 12.2837C3.06416 14.0956 4.75167 15.41 6.74116 15.4456C5.17799 16.6712 3.21515 17.3995 1.08356 17.3995C0.719412 17.3995 0.355265 17.3818 0 17.3373C2.00725 18.6163 4.40529 19.3712 6.97208 19.3712" fill="black"/>
</svg>
