<svg width="277" height="135" viewBox="0 0 277 135" fill="none" xmlns="http://www.w3.org/2000/svg">
<g clip-path="url(#clip0_1_58)">
<path d="M42.2637 85.5852L43.6248 82.2947C44.3577 80.5177 43.5829 78.3943 41.8728 77.5962L27.4103 69.833V69.7126L41.8659 61.9569C43.5829 61.1588 44.3577 59.0354 43.6178 57.2584L42.2567 53.9679C41.803 52.6502 39.9813 51.1593 37.8245 52.4168L17.5197 64.7956C15.7259 65.8573 15.4886 67.785 15.4886 68.2819V71.2712C15.4886 71.7757 15.7329 73.7033 17.5197 74.7575L37.8314 87.1288C39.9813 88.3938 41.81 86.8954 42.2637 85.5852Z" fill="#FFD65A"/>
<path d="M7.5593 51.7767H4.11818C1.84271 51.7767 0 53.7571 0 56.2193V83.3489C0 85.7961 1.84271 87.7839 4.11818 87.7839H7.5593C9.83477 87.7839 11.6705 85.7961 11.6705 83.3489V56.2193C11.6705 53.7571 9.83477 51.7767 7.5593 51.7767Z" fill="#008457"/>
<path d="M60.4396 54.367C52.5522 54.367 46.1586 61.2642 46.1586 69.7804C46.1586 78.289 52.5592 85.1862 60.4396 85.1862C68.3339 85.1862 74.7276 78.289 74.7276 69.7728C74.7276 61.2642 68.3339 54.367 60.4396 54.367ZM60.4396 75.8644C57.3265 75.8644 54.8067 73.1386 54.8067 69.7804C54.8067 66.4146 57.3265 63.6963 60.4396 63.6963C63.5526 63.6963 66.0794 66.4146 66.0794 69.7804C66.0794 73.1386 63.5526 75.8644 60.4396 75.8644Z" fill="#0066CC"/>
<path d="M78.6224 85.5852L77.2613 82.2947C76.5215 80.5177 77.3032 78.3943 79.0133 77.5962L93.4758 69.833V69.7126L79.0133 61.9569C77.2962 61.1588 76.5215 59.0354 77.2613 57.2584L78.6224 53.9679C79.0761 52.6502 80.8979 51.1593 83.0547 52.4168L103.366 64.7881C105.16 65.8498 105.398 67.7774 105.398 68.2744V71.2637C105.398 71.7682 105.153 73.6958 103.366 74.75L83.0547 87.1213C80.8979 88.3938 79.0761 86.8954 78.6224 85.5852Z" fill="#FFD65A"/>
<path d="M113.32 51.7767H116.761C119.043 51.7767 120.879 53.7571 120.879 56.2193V83.3489C120.879 85.7961 119.036 87.7839 116.761 87.7839H113.32C111.044 87.7839 109.209 85.7961 109.209 83.3489V56.2193C109.209 53.7571 111.044 51.7767 113.32 51.7767Z" fill="#008457"/>
<path d="M133.282 51.7767H132.557V87.7839H133.282V51.7767Z" fill="black"/>
<path d="M156.24 79.8552C154.718 78.3869 153.231 77.7393 151.989 77.1972C150.551 76.5722 149.518 76.1204 148.673 74.6145C148.108 73.6055 147.808 72.4158 147.808 71.1734V62.2657C147.808 61.0384 147.556 59.8637 147.068 58.7644C146.991 58.5912 146.907 58.4255 146.824 58.2599C148.569 57.5973 149.797 56.4753 150.928 55.4588C152.505 54.0282 153.748 52.9062 156.24 52.9062C158.724 52.9062 160.03 54.0884 161.412 55.3308L161.551 55.4588C162.675 56.4829 163.911 57.5973 165.656 58.2599C165.013 59.4646 164.671 60.8426 164.671 62.2657V71.1659C164.671 72.4007 164.371 73.5904 163.806 74.6069C163.003 76.0451 162.096 76.4894 160.56 77.1595L160.49 77.1896C159.248 77.7393 157.761 78.3869 156.24 79.8552Z" fill="#005FE6"/>
<path d="M162.389 61.0383V69.7427H162.319L160.707 67.9958C160.483 67.7549 160.176 67.6118 159.855 67.6118H158.306V69.2834C158.306 69.6298 158.431 69.9611 158.662 70.202L160.281 71.9489V72.0242H152.212V71.9489L153.831 70.202C154.055 69.9611 154.187 69.6298 154.187 69.2834V67.6118H152.631C152.31 67.6118 152.003 67.7473 151.779 67.9958L150.167 69.7427H150.097V61.0383H150.167L151.779 62.7852C152.003 63.0262 152.31 63.1693 152.631 63.1693H154.187V61.4977C154.187 61.1513 154.062 60.82 153.831 60.579L152.212 58.8321V58.7568H160.281V58.8321L158.662 60.579C158.438 60.82 158.306 61.1513 158.306 61.4977V63.1693H159.855C160.176 63.1693 160.483 63.0337 160.707 62.7852L162.319 61.0383H162.389Z" fill="white"/>
<path d="M153.113 65.5938C153.113 65.7293 153.12 65.8423 153.141 65.9326C153.154 66.023 153.189 66.0908 153.231 66.1435C153.273 66.1962 153.336 66.2263 153.42 66.2489C153.497 66.2715 153.601 66.279 153.727 66.279H153.859H154.097C154.16 66.279 154.229 66.279 154.306 66.279C154.39 66.279 154.481 66.2715 154.599 66.2715L154.474 67.0245C154.376 67.0245 154.299 67.032 154.229 67.032C154.16 67.032 154.104 67.032 154.048 67.032H153.818H153.664C153.406 67.032 153.189 67.0094 153.008 66.9567C152.826 66.9115 152.687 66.8287 152.575 66.7157C152.463 66.6028 152.38 66.4597 152.331 66.2715C152.282 66.0908 152.254 65.8573 152.254 65.5863V65.1797C152.254 64.9237 152.282 64.6978 152.331 64.5171C152.38 64.3363 152.463 64.1857 152.575 64.0728C152.687 63.9599 152.833 63.877 153.008 63.8243C153.182 63.7716 153.399 63.749 153.657 63.749H153.79H154.034C154.097 63.749 154.174 63.749 154.257 63.749C154.341 63.749 154.446 63.7566 154.557 63.7566L154.432 64.5095C154.299 64.502 154.181 64.502 154.09 64.502H153.706C153.58 64.502 153.483 64.5095 153.399 64.5321C153.322 64.5547 153.259 64.5848 153.21 64.6375C153.161 64.6902 153.134 64.758 153.12 64.8484C153.106 64.9387 153.099 65.0517 153.099 65.1872V65.5938H153.113Z" fill="#001E73"/>
<path d="M155.011 63.7559H156.554C156.875 63.7559 157.112 63.8237 157.259 63.9592C157.405 64.0948 157.475 64.2981 157.475 64.5691V64.6294C157.475 64.9456 157.356 65.164 157.119 65.292C157.259 65.3522 157.37 65.4426 157.447 65.5631C157.524 65.6835 157.559 65.8417 157.559 66.0374V66.1203C157.559 66.444 157.468 66.6699 157.294 66.813C157.112 66.9561 156.847 67.0238 156.491 67.0238H155.004V63.7559H155.011ZM156.693 64.6971C156.693 64.5993 156.672 64.5315 156.624 64.4863C156.582 64.4487 156.498 64.4261 156.393 64.4261H155.772V65.0284H156.379C156.498 65.0284 156.575 65.0059 156.624 64.9607C156.672 64.9155 156.693 64.8402 156.693 64.7423V64.6971ZM155.772 66.3537H156.421C156.554 66.3537 156.644 66.3311 156.7 66.2859C156.756 66.2407 156.784 66.1579 156.784 66.0374V65.9772C156.784 65.8492 156.756 65.7664 156.7 65.7212C156.644 65.676 156.547 65.6534 156.414 65.6534H155.779V66.3537H155.772Z" fill="#001E73"/>
<path d="M160.225 63.7559L160.099 64.4712H158.738V65.1037H160.03L159.911 65.7965H158.738V67.0238H157.936V63.7559H160.225Z" fill="#001E73"/>
<path d="M150.089 65.391V63.1697H148.184V65.391H150.089Z" fill="#00A032"/>
<path d="M162.389 65.3921V67.6134H164.294V65.3921H162.389Z" fill="#00A032"/>
<path d="M166.13 63.1686H164.664V62.265C164.664 60.8419 165.013 59.464 165.649 58.2592C163.904 57.5966 162.675 56.4747 161.544 55.4582C159.967 54.0275 158.724 52.9056 156.233 52.9056V51.3243C155.458 51.3243 154.781 51.4222 154.174 51.5879V53.2294C152.91 53.6661 151.996 54.4944 150.921 55.4657C149.797 56.4822 148.562 57.6041 146.817 58.2668C147.459 59.4715 147.801 60.8495 147.801 62.2726V65.3974H146.335V67.6187H147.801V71.1727C147.801 72.4076 148.101 73.5973 148.666 74.6138C149.511 76.1197 150.544 76.5715 151.982 77.1965C153.224 77.7386 154.711 78.3862 156.233 79.8545V82.1059C156.924 81.24 157.615 80.615 158.292 80.1256V78.2808C159.073 77.8139 159.813 77.4902 160.483 77.1965C161.921 76.5715 162.954 76.1197 163.799 74.6138C164.364 73.5973 164.664 72.4151 164.664 71.1727V65.3974H166.13V63.1686ZM164.294 71.1652C164.294 72.3323 164.015 73.4467 163.485 74.3954C162.71 75.7884 161.768 76.195 160.351 76.8125C159.73 77.0835 159.039 77.3847 158.299 77.8139V72.0236H156.24V79.3123C154.76 77.9645 153.308 77.332 152.128 76.8125C150.704 76.195 149.769 75.7809 148.994 74.3954C148.464 73.4467 148.185 72.3248 148.185 71.1652V67.6111H150.09V65.3899H148.185V62.265C148.185 60.9473 147.899 59.6447 147.354 58.4701C148.953 57.7698 150.125 56.7081 151.165 55.7594C152.198 54.8181 153.05 54.0576 154.174 53.6435V58.7487H156.233V53.2971C158.585 53.2971 159.73 54.3287 161.3 55.7594C162.347 56.7081 163.513 57.7698 165.111 58.4701C164.567 59.6372 164.281 60.9398 164.281 62.265V63.1686H162.375V65.3899H164.281V71.1652H164.294Z" fill="#FFCD00"/>
<path d="M158.299 53.6441C157.712 53.4258 157.049 53.3053 156.24 53.3053V58.7568H158.299V53.6441Z" fill="#00A032"/>
<path d="M154.18 77.8146C154.844 78.1986 155.535 78.673 156.24 79.313V72.0242H154.18V77.8146Z" fill="#00A032"/>
<path d="M156.24 52.8987C158.731 52.8987 159.974 54.0281 161.551 55.4513C162.675 56.4678 163.911 57.5897 165.656 58.2523C165.02 59.4571 164.671 60.835 164.671 62.2581V63.1617H166.137V62.2581C166.137 60.2402 166.996 58.433 168.336 57.2433C165.488 57.0175 163.932 55.5341 162.354 54.111C160.777 52.6879 159.178 51.3174 156.247 51.3174L156.24 52.8987Z" fill="#001E73"/>
<path d="M147.808 62.2657C147.808 60.8426 147.466 59.4646 146.824 58.2599C148.569 57.5973 149.797 56.4753 150.928 55.4588C151.996 54.4875 152.917 53.6592 154.18 53.2225V51.581C150.146 52.6728 149.099 56.8593 144.15 57.2509C144.82 57.8457 145.372 58.5987 145.756 59.4496C146.14 60.3004 146.349 61.2567 146.349 62.2657V65.3905H147.815V62.2657H147.808Z" fill="#001E73"/>
<path d="M151.989 77.1896C150.551 76.5646 149.518 76.1128 148.673 74.6069C148.108 73.5904 147.808 72.4082 147.808 71.1658V67.6118H146.342V71.1658C146.342 72.6642 146.698 74.14 147.417 75.4201C149.567 79.2828 152.854 77.8823 156.233 82.099V79.8476C154.718 78.3793 153.231 77.7317 151.989 77.1896Z" fill="#001E73"/>
<path d="M164.664 71.1658C164.664 72.4007 164.364 73.5904 163.799 74.6069C162.961 76.1128 161.921 76.5646 160.483 77.1896C159.813 77.4833 159.067 77.807 158.292 78.2739V80.1262C159.262 79.4259 160.211 79.0193 161.105 78.6278C162.619 77.9652 163.98 77.3553 165.055 75.4201C165.767 74.1401 166.13 72.6642 166.13 71.1658V65.3905H164.664V71.1658Z" fill="#001E73"/>
<path d="M145.644 83.7631H147.815C148.289 83.7631 148.638 83.861 148.855 84.0643C149.071 84.2676 149.176 84.5613 149.176 84.9604V85.0507C149.176 85.5176 149.001 85.8489 148.652 86.0296C148.862 86.1124 149.022 86.2479 149.134 86.4287C149.246 86.6094 149.302 86.8428 149.302 87.1289V87.2494C149.302 87.7238 149.169 88.0626 148.904 88.2734C148.638 88.4843 148.241 88.5897 147.717 88.5897H145.637V83.7631H145.644ZM148.017 85.1561C148.017 85.0131 147.982 84.9076 147.919 84.8474C147.85 84.7872 147.738 84.757 147.57 84.757H146.775V85.6456H147.557C147.731 85.6456 147.85 85.6154 147.919 85.5477C147.989 85.4799 148.024 85.3745 148.024 85.2239V85.1561H148.017ZM146.768 87.6033H147.612C147.808 87.6033 147.94 87.5732 148.024 87.5054C148.101 87.4376 148.143 87.3172 148.143 87.1364V87.0461C148.143 86.8578 148.101 86.7298 148.017 86.6621C147.933 86.5943 147.794 86.5642 147.591 86.5642H146.768V87.6033V87.6033Z" fill="#008457"/>
<path d="M153.755 88.5894H152.449L151.717 87.0157H151.116V88.5894H149.909V83.7628H151.779C152.1 83.7628 152.373 83.7929 152.596 83.8456C152.819 83.9059 153.008 83.9887 153.147 84.1167C153.287 84.2372 153.392 84.3953 153.462 84.5911C153.524 84.7869 153.559 85.0203 153.559 85.3064V85.4721C153.559 85.8184 153.496 86.097 153.364 86.3079C153.231 86.5187 153.043 86.6844 152.798 86.7898L153.755 88.5894ZM152.352 85.3742C152.345 85.1558 152.303 85.0128 152.212 84.9299C152.121 84.8546 151.961 84.817 151.731 84.817H151.116V85.9841H151.731C151.961 85.9841 152.121 85.9464 152.212 85.8711C152.303 85.7958 152.352 85.6453 152.352 85.4269V85.3742Z" fill="#008457"/>
<path d="M156.993 87.5352H155.507L155.207 88.5894H153.978L155.542 83.7628H157.014L158.585 88.5894H157.301L156.993 87.5352ZM155.772 86.5262H156.714L156.24 84.8923L155.772 86.5262Z" fill="#008457"/>
<path d="M164.148 83.7628H162.919V88.5894H164.148V83.7628Z" fill="#008457"/>
<path d="M166.123 83.7628V87.4825H168.154L167.812 88.5894H164.902V83.7628H166.123Z" fill="#008457"/>
<path d="M158.766 85.1636C158.766 84.9377 158.794 84.7344 158.857 84.5612C158.92 84.388 159.018 84.2374 159.157 84.1169C159.297 83.9965 159.471 83.9061 159.695 83.8459C159.911 83.7856 160.176 83.7631 160.49 83.7631C160.602 83.7631 161.963 83.7555 162.152 83.7631L161.838 84.8172C161.496 84.8097 161.349 84.8097 161.112 84.8097C160.881 84.8097 160.679 84.8097 160.504 84.8097C160.309 84.8097 160.176 84.8323 160.113 84.8775C160.051 84.9226 160.016 85.013 160.016 85.141C160.016 85.2012 160.023 85.2539 160.03 85.2991C160.037 85.3368 160.058 85.3744 160.086 85.397C160.113 85.4196 160.148 85.4422 160.197 85.4648C160.246 85.4798 160.309 85.5024 160.386 85.5099L161.091 85.6455C161.321 85.6907 161.509 85.7509 161.663 85.8262C161.817 85.9015 161.935 85.9994 162.033 86.1123C162.124 86.2253 162.187 86.3608 162.221 86.5189C162.256 86.6695 162.277 86.8502 162.277 87.0535V87.1665C162.277 87.4225 162.249 87.6409 162.187 87.8216C162.124 88.0023 162.026 88.1529 161.879 88.2734C161.74 88.3938 161.551 88.4767 161.314 88.5294C161.084 88.5821 160.791 88.5971 160.449 88.5971C160.337 88.5971 159.318 88.6047 159.108 88.5971L158.766 87.543C159.094 87.5505 159.562 87.558 159.806 87.558H160.462C160.672 87.558 160.811 87.5355 160.881 87.4903C160.951 87.4451 160.986 87.3547 160.986 87.2041C160.986 87.1364 160.979 87.0761 160.972 87.031C160.958 86.9858 160.944 86.9481 160.916 86.918C160.888 86.8879 160.846 86.8653 160.798 86.8427C160.742 86.8201 160.679 86.8051 160.602 86.79L160.044 86.6846C159.785 86.6319 159.569 86.5716 159.409 86.4963C159.248 86.421 159.115 86.3307 159.025 86.2177C158.927 86.1048 158.864 85.9768 158.829 85.8187C158.794 85.6681 158.773 85.4798 158.773 85.269V85.1636H158.766Z" fill="#008457"/>
<path fill-rule="evenodd" clip-rule="evenodd" d="M157.454 49.0962L157 47.5526L158.159 46.6114V46.5436H156.707L156.254 45H156.205L155.758 46.5436H154.306V46.6114L155.458 47.5526L155.011 49.0962H155.095L156.226 48.1851L157.37 49.0962H157.454Z" fill="#008457"/>
<path fill-rule="evenodd" clip-rule="evenodd" d="M151.919 50.7301L151.465 49.1865L152.624 48.2453V48.1775H151.172L150.718 46.6339H150.67L150.223 48.1775H148.771V48.2453L149.923 49.1865L149.476 50.7301H149.56L150.69 49.819L151.835 50.7301H151.919Z" fill="#008457"/>
<path fill-rule="evenodd" clip-rule="evenodd" d="M160.56 50.7301L161.014 49.1865L159.855 48.2453V48.1775H161.307L161.761 46.6339H161.81L162.256 48.1775H163.708V48.2453L162.556 49.1865L163.003 50.7301H162.919L161.789 49.819L160.644 50.7301H160.56Z" fill="#008457"/>
<path fill-rule="evenodd" clip-rule="evenodd" d="M147.298 54.3896L146.845 52.846L148.003 51.8972V51.8295H146.551L146.098 50.2934H146.049L145.602 51.8295H144.15V51.8972L145.302 52.846L144.855 54.3896H144.939L146.07 53.4709L147.214 54.3896H147.298Z" fill="#008457"/>
<path fill-rule="evenodd" clip-rule="evenodd" d="M167.61 54.3896L167.156 52.846L168.315 51.8972V51.8295H166.863L166.409 50.2934H166.36L165.914 51.8295H164.462V51.8972L165.614 52.846L165.167 54.3896H165.251L166.381 53.4709L167.526 54.3896H167.61Z" fill="#008457"/>
<path d="M180.425 60.451H183.217C183.406 60.451 183.448 60.4133 183.448 60.2025V59.555C183.448 59.3441 183.406 59.3065 183.217 59.3065H182.484V57.1756H183.071C184.236 57.1756 185.597 56.4828 185.597 54.51C185.597 52.2662 183.915 52.2662 183.015 52.2662H180.425C180.237 52.2662 180.195 52.3038 180.195 52.5147V53.1622C180.195 53.3806 180.237 53.4107 180.425 53.4107H180.991V59.3065H180.425C180.237 59.3065 180.195 59.3441 180.195 59.555V60.2025C180.195 60.4133 180.237 60.451 180.425 60.451ZM182.484 53.5236H182.938C183.517 53.5236 184.104 53.5613 184.104 54.6004C184.104 55.8051 183.482 55.9256 182.833 55.9256H182.491V53.5236H182.484Z" fill="black"/>
<path d="M186.938 58.817C186.938 59.939 187.58 60.6543 188.599 60.6543C189.415 60.6543 189.806 60.1799 190.03 59.939C190.072 60.1573 190.092 60.451 190.365 60.451H191.747C191.879 60.451 191.9 60.4133 191.9 60.2853V59.5098C191.9 59.3818 191.865 59.3441 191.747 59.3441H191.272C191.216 59.1032 191.16 58.8999 191.16 58.3427V56.2795C191.16 55.0371 190.637 54.3594 189.255 54.3594C188.403 54.3594 187.307 54.6456 187.307 54.9166C187.307 54.9618 187.328 55.0145 187.342 55.0597L187.566 55.7901C187.58 55.8353 187.622 55.9106 187.677 55.9106C187.824 55.9106 188.431 55.5491 189.052 55.5491C189.75 55.5491 189.841 55.8955 189.841 56.4301V56.7991C188.955 56.7991 186.938 56.7991 186.938 58.817ZM189.827 59.0881C189.695 59.2312 189.408 59.5399 188.997 59.5399C188.578 59.5399 188.264 59.1935 188.264 58.7267C188.264 57.6725 189.548 57.7704 189.827 57.7704V59.0881Z" fill="black"/>
<path d="M192.877 55.6621H193.666V58.3502C193.666 59.4495 193.666 60.6543 195.097 60.6543C195.851 60.6543 196.661 60.4284 196.661 60.21C196.661 60.1724 196.647 60.1347 196.64 60.1046L196.416 59.1257C196.402 59.0806 196.374 59.0504 196.325 59.0504C196.172 59.0504 195.893 59.2763 195.453 59.2763C195.076 59.2763 195.076 58.93 195.076 58.5459V55.6545H196.151C196.263 55.6545 196.326 55.6395 196.36 55.4889L196.514 54.7811C196.528 54.7359 196.535 54.7058 196.535 54.6606C196.535 54.5627 196.444 54.5401 196.332 54.5401H195.069V52.8685C195.069 52.7255 195.055 52.6652 194.957 52.6652C194.895 52.6652 194.846 52.6803 194.811 52.6803L193.834 52.8233C193.68 52.8459 193.659 52.8836 193.659 53.0417V54.5477H192.87C192.738 54.5477 192.717 54.5853 192.717 54.7133V55.4889C192.724 55.6244 192.745 55.6621 192.877 55.6621Z" fill="black"/>
<path d="M201.4 54.3444C200.646 54.3444 200.234 55.0145 200.025 55.2856C199.948 54.9844 199.906 54.5477 199.613 54.5477H198.175C198.043 54.5477 198.022 54.5853 198.022 54.7133V55.4889C198.022 55.6169 198.043 55.6545 198.175 55.6545H198.706C198.762 55.903 198.817 56.0762 198.817 56.671V59.3366H198.252C198.119 59.3366 198.099 59.3742 198.099 59.5022V60.2778C198.099 60.4058 198.119 60.4434 198.252 60.4434H200.821C200.953 60.4434 200.974 60.4058 200.974 60.2778V59.5022C200.974 59.3742 200.953 59.3366 200.821 59.3366H200.22V56.2946C200.367 56.1289 200.716 55.7223 201.065 55.7223C201.323 55.7223 201.519 55.8503 201.589 55.8503C201.63 55.8503 201.665 55.7825 201.679 55.7449L202.021 54.7434C202.035 54.7208 202.042 54.6681 202.042 54.623C202.042 54.4648 201.721 54.3444 201.4 54.3444Z" fill="black"/>
<path d="M205.497 60.6543C206.991 60.6543 207.898 59.4269 207.898 57.4993C207.898 55.5792 206.977 54.3444 205.497 54.3444C204.004 54.3444 203.096 55.5717 203.096 57.4993C203.096 59.4269 204.004 60.6543 205.497 60.6543ZM205.497 55.5416C206.258 55.5416 206.405 56.3924 206.405 57.4993C206.405 58.6212 206.272 59.457 205.497 59.457C204.723 59.457 204.59 58.6062 204.59 57.4993C204.59 56.3924 204.736 55.5416 205.497 55.5416Z" fill="black"/>
<path d="M211.94 60.6543C212.603 60.6543 213.489 60.4133 213.489 60.1648C213.489 60.1272 213.468 60.082 213.454 60.0443L213.168 59.2537C213.147 59.2161 213.126 59.1935 213.091 59.1935C212.98 59.1935 212.673 59.457 212.114 59.457C211.263 59.457 210.976 58.8471 210.976 57.5369C210.976 56.159 211.311 55.5416 212.086 55.5416C212.177 55.5416 212.261 55.5566 212.352 55.5867V56.4677C212.352 56.6108 212.386 56.6334 212.505 56.6334H213.301C213.426 56.6334 213.454 56.6108 213.454 56.4677V54.8639C213.454 54.5326 212.624 54.3519 212.093 54.3519C210.418 54.3519 209.483 55.5943 209.483 57.6273C209.483 59.6377 210.397 60.6543 211.94 60.6543Z" fill="black"/>
<path d="M216.463 53.7721C216.958 53.7721 217.37 53.3279 217.37 52.7782C217.37 52.2285 216.958 51.7993 216.463 51.7993C215.953 51.7993 215.541 52.2285 215.541 52.7782C215.541 53.3279 215.953 53.7721 216.463 53.7721Z" fill="black"/>
<path d="M215.046 55.662H215.765V59.3441H215.053C214.92 59.3441 214.899 59.3817 214.899 59.5097V60.2853C214.899 60.4133 214.92 60.451 215.053 60.451H217.88C218.012 60.451 218.033 60.4133 218.033 60.2853V59.5097C218.033 59.3817 218.012 59.3441 217.88 59.3441H217.168V54.7208C217.168 54.5853 217.147 54.5552 217.014 54.5552H215.046C214.913 54.5552 214.892 54.5928 214.892 54.7208V55.4964C214.892 55.6244 214.913 55.662 215.046 55.662Z" fill="black"/>
<path d="M219.576 55.6621H220.106C220.176 55.9105 220.218 56.0837 220.218 56.6786V59.3441H219.653C219.52 59.3441 219.499 59.3818 219.499 59.5098V60.2853C219.499 60.4133 219.52 60.451 219.653 60.451H222.186C222.319 60.451 222.34 60.4133 222.34 60.2853V59.5098C222.34 59.3818 222.319 59.3441 222.186 59.3441H221.621V56.0913C221.768 55.9482 222.11 55.6018 222.57 55.6018C223.136 55.6018 223.191 56.1515 223.191 56.6033V60.2853C223.191 60.4133 223.212 60.451 223.345 60.451H225.16C225.292 60.451 225.313 60.4133 225.313 60.2853V59.5098C225.313 59.3818 225.292 59.3441 225.16 59.3441H224.594V56.2343C224.594 55.1952 224.329 54.3444 223.157 54.3444C222.284 54.3444 221.795 54.8564 221.46 55.1651C221.384 54.9016 221.37 54.5477 221.104 54.5477H219.562C219.429 54.5477 219.408 54.5853 219.408 54.7133V55.4889C219.422 55.6169 219.443 55.6621 219.576 55.6621Z" fill="black"/>
<path d="M226.786 58.817C226.786 59.939 227.428 60.6543 228.447 60.6543C229.264 60.6543 229.655 60.1799 229.878 59.939C229.92 60.1573 229.941 60.451 230.213 60.451H231.595C231.728 60.451 231.749 60.4133 231.749 60.2853V59.5098C231.749 59.3818 231.714 59.3441 231.595 59.3441H231.121C231.065 59.1032 231.009 58.8999 231.009 58.3427V56.2795C231.009 55.0371 230.486 54.3594 229.104 54.3594C228.252 54.3594 227.156 54.6456 227.156 54.9166C227.156 54.9618 227.177 55.0145 227.191 55.0597L227.414 55.7901C227.428 55.8353 227.47 55.9106 227.526 55.9106C227.673 55.9106 228.28 55.5491 228.901 55.5491C229.599 55.5491 229.69 55.8955 229.69 56.4301V56.7991C228.803 56.7991 226.786 56.7991 226.786 58.817ZM229.676 59.0881C229.543 59.2312 229.257 59.5399 228.845 59.5399C228.427 59.5399 228.112 59.1935 228.112 58.7267C228.112 57.6725 229.397 57.7704 229.676 57.7704V59.0881Z" fill="black"/>
<path d="M236.844 60.451H238.331C238.464 60.451 238.485 60.4133 238.485 60.2853V59.5097C238.485 59.3817 238.464 59.3441 238.331 59.3441H237.842C237.78 59.1182 237.731 58.9149 237.731 58.3426V52.0553C237.731 51.9273 237.71 51.8896 237.577 51.8896H235.762C235.63 51.8896 235.609 51.9273 235.609 52.0553V52.8309C235.609 52.9664 235.63 52.9965 235.762 52.9965H236.328V54.7058C236.125 54.5778 235.853 54.3443 235.197 54.3443C233.822 54.3443 233.068 55.4813 233.068 57.7403C233.068 59.5549 233.696 60.6543 234.96 60.6543C235.804 60.6543 236.314 60.1874 236.523 60.0067C236.649 60.3832 236.6 60.451 236.844 60.451ZM236.328 59.0429C236.181 59.201 235.965 59.4646 235.406 59.4646C234.688 59.4646 234.478 58.8923 234.478 57.5445C234.478 56.2192 234.646 55.5491 235.476 55.5491C236 55.5491 236.216 55.7298 236.328 55.79V59.0429V59.0429Z" fill="black"/>
<path d="M242.226 60.6543C243.72 60.6543 244.627 59.4269 244.627 57.4993C244.627 55.5792 243.706 54.3444 242.226 54.3444C240.732 54.3444 239.825 55.5717 239.825 57.4993C239.825 59.4269 240.732 60.6543 242.226 60.6543ZM242.226 55.5416C242.987 55.5416 243.133 56.3924 243.133 57.4993C243.133 58.6212 243.001 59.457 242.226 59.457C241.451 59.457 241.318 58.6062 241.318 57.4993C241.318 56.3924 241.465 55.5416 242.226 55.5416Z" fill="black"/>
<path d="M250.085 54.6229C250.085 54.4648 249.764 54.3519 249.443 54.3519C248.689 54.3519 248.277 55.022 248.068 55.2931C247.991 54.9919 247.949 54.5552 247.656 54.5552H246.218C246.086 54.5552 246.065 54.5928 246.065 54.7208V55.4964C246.065 55.6244 246.086 55.662 246.218 55.662H246.749C246.805 55.9105 246.861 56.0837 246.861 56.6786V59.3441H246.295C246.163 59.3441 246.142 59.3817 246.142 59.5097V60.2853C246.142 60.4133 246.163 60.4509 246.295 60.4509H248.864C248.996 60.4509 249.017 60.4133 249.017 60.2853V59.5097C249.017 59.3817 248.996 59.3441 248.864 59.3441H248.264V56.2945C248.41 56.1289 248.759 55.7223 249.108 55.7223C249.366 55.7223 249.562 55.8503 249.632 55.8503C249.673 55.8503 249.708 55.7825 249.722 55.7449L250.064 54.7434C250.071 54.7208 250.085 54.6681 250.085 54.6229Z" fill="black"/>
<path d="M251.244 58.817C251.244 59.939 251.886 60.6543 252.905 60.6543C253.722 60.6543 254.113 60.1799 254.336 59.939C254.378 60.1573 254.399 60.451 254.671 60.451H256.053C256.186 60.451 256.207 60.4133 256.207 60.2853V59.5098C256.207 59.3818 256.172 59.3441 256.053 59.3441H255.579C255.523 59.1032 255.467 58.8999 255.467 58.3427V56.2795C255.467 55.0371 254.943 54.3594 253.561 54.3594C252.71 54.3594 251.614 54.6456 251.614 54.9166C251.614 54.9618 251.635 55.0145 251.649 55.0597L251.872 55.7901C251.886 55.8353 251.928 55.9106 251.984 55.9106C252.13 55.9106 252.738 55.5491 253.359 55.5491C254.057 55.5491 254.148 55.8955 254.148 56.4301V56.7991C253.261 56.7991 251.244 56.7991 251.244 58.817ZM254.134 59.0881C254.001 59.2312 253.715 59.5399 253.303 59.5399C252.884 59.5399 252.57 59.1935 252.57 58.7267C252.57 57.6725 253.855 57.7704 254.134 57.7704V59.0881Z" fill="black"/>
<path d="M182.98 65.6089C181.277 65.6089 180.223 67.0094 180.223 69.9084C180.223 72.7998 181.263 74.2003 182.98 74.2003C184.697 74.2003 185.737 72.7998 185.737 69.9084C185.737 67.0169 184.683 65.6089 182.98 65.6089ZM182.98 72.9428C182.149 72.9428 181.793 71.7682 181.793 69.9084C181.793 68.041 182.149 66.8588 182.98 66.8588C183.811 66.8588 184.167 68.0259 184.167 69.9084C184.16 71.7757 183.811 72.9428 182.98 72.9428Z" fill="black"/>
<path d="M190.365 66.6329C190.783 66.6329 191.021 66.8362 191.139 66.8362C191.181 66.8362 191.23 66.7685 191.237 66.7157L191.44 65.8799C191.454 65.8423 191.461 65.8047 191.461 65.7745C191.461 65.5336 190.609 65.3453 190.106 65.3453C188.78 65.3453 188.334 66.2866 188.334 67.6043V68.0937H187.545C187.356 68.0937 187.314 68.1313 187.314 68.3422V68.9521C187.314 69.1704 187.356 69.2006 187.545 69.2006H188.334V72.8826H187.656C187.468 72.8826 187.426 72.9203 187.426 73.1311V73.741C187.426 73.9594 187.468 73.9895 187.656 73.9895H190.49C190.679 73.9895 190.721 73.9518 190.721 73.741V73.1311C190.721 72.9127 190.679 72.8826 190.49 72.8826H189.736V69.2006H190.797C190.909 69.2006 190.972 69.1855 191.007 69.0349L191.16 68.3271C191.174 68.2819 191.181 68.2518 191.181 68.2066C191.181 68.1087 191.091 68.0862 190.993 68.0862H189.73V67.5967C189.743 67.032 189.764 66.6329 190.365 66.6329Z" fill="black"/>
<path d="M192.661 69.2081H193.38V72.8901H192.668C192.535 72.8901 192.515 72.9278 192.515 73.0558V73.8313C192.515 73.9593 192.535 73.997 192.668 73.997H195.495C195.628 73.997 195.649 73.9593 195.649 73.8313V73.0558C195.649 72.9278 195.628 72.8901 195.495 72.8901H194.783V68.2668C194.783 68.1313 194.762 68.1012 194.629 68.1012H192.661C192.528 68.1012 192.508 68.1388 192.508 68.2668V69.0424C192.508 69.1704 192.528 69.2081 192.661 69.2081Z" fill="black"/>
<path d="M193.157 66.3242C193.157 66.8739 193.568 67.3181 194.078 67.3181C194.574 67.3181 194.985 66.8739 194.985 66.3242C194.985 65.7745 194.574 65.3453 194.078 65.3453C193.568 65.3453 193.157 65.7745 193.157 66.3242Z" fill="black"/>
<path d="M200.653 72.7998C200.632 72.7621 200.611 72.7395 200.576 72.7395C200.465 72.7395 200.158 73.0031 199.599 73.0031C198.748 73.0031 198.461 72.3932 198.461 71.083C198.461 69.7126 198.796 69.0876 199.571 69.0876C199.662 69.0876 199.746 69.1027 199.836 69.1328V70.0138C199.836 70.1568 199.871 70.1794 199.99 70.1794H200.786C200.911 70.1794 200.939 70.1568 200.939 70.0138V68.4024C200.939 68.0711 200.109 67.8904 199.578 67.8904C197.903 67.8904 196.968 69.1328 196.968 71.1658C196.968 73.1838 197.889 74.2003 199.425 74.2003C200.088 74.2003 200.974 73.9593 200.974 73.7109C200.974 73.6732 200.953 73.628 200.939 73.5904L200.653 72.7998Z" fill="black"/>
<path d="M203.955 67.3181C204.45 67.3181 204.862 66.8739 204.862 66.3242C204.862 65.7745 204.45 65.3453 203.955 65.3453C203.445 65.3453 203.033 65.7745 203.033 66.3242C203.033 66.8739 203.445 67.3181 203.955 67.3181Z" fill="black"/>
<path d="M205.525 73.8313V73.0558C205.525 72.9278 205.504 72.8901 205.372 72.8901H204.66V68.2668C204.66 68.1313 204.639 68.1012 204.506 68.1012H202.538C202.405 68.1012 202.384 68.1388 202.384 68.2668V69.0424C202.384 69.1704 202.405 69.2081 202.538 69.2081H203.257V72.8901H202.545C202.412 72.8901 202.391 72.9278 202.391 73.0558V73.8313C202.391 73.9593 202.412 73.997 202.545 73.997H205.372C205.504 73.997 205.525 73.9593 205.525 73.8313Z" fill="black"/>
<path d="M210.041 73.4849C210.083 73.7033 210.104 73.9969 210.376 73.9969H211.758C211.891 73.9969 211.912 73.9593 211.912 73.8313V73.0557C211.912 72.9277 211.877 72.8901 211.758 72.8901H211.284C211.228 72.6491 211.172 72.4458 211.172 71.8886V69.8255C211.172 68.5831 210.649 67.9054 209.266 67.9054C208.415 67.9054 207.319 68.1915 207.319 68.4701C207.319 68.5153 207.34 68.568 207.354 68.6132L207.577 69.3436C207.591 69.3888 207.633 69.4641 207.689 69.4641C207.836 69.4641 208.443 69.1026 209.064 69.1026C209.762 69.1026 209.853 69.449 209.853 69.9836V70.3526C208.98 70.3526 206.963 70.3526 206.963 72.3705C206.963 73.4925 207.605 74.2078 208.624 74.2078C209.434 74.2003 209.825 73.7183 210.041 73.4849ZM209.846 72.6341C209.713 72.7771 209.427 73.0858 209.015 73.0858C208.596 73.0858 208.282 72.7395 208.282 72.2726C208.282 71.2185 209.567 71.3164 209.846 71.3164V72.6341Z" fill="black"/>
<path d="M215.96 73.8614C215.96 73.8238 215.946 73.7937 215.939 73.7635L215.716 72.7847C215.702 72.7395 215.674 72.7094 215.625 72.7094C215.555 72.7094 215.416 72.8148 215.192 72.8148C214.885 72.8148 214.885 72.4835 214.885 72.0995V65.5862C214.885 65.4582 214.864 65.4206 214.732 65.4206H212.924C212.791 65.4206 212.77 65.4582 212.77 65.5862V66.3618C212.77 66.4898 212.791 66.5275 212.924 66.5275H213.475V71.8811C213.475 72.9804 213.475 74.1852 214.836 74.1852C215.374 74.2003 215.96 74.0346 215.96 73.8614Z" fill="black"/>
<path d="M226.298 72.8826H225.809C225.746 72.6567 225.697 72.4534 225.697 71.8811V65.5938C225.697 65.4658 225.676 65.4282 225.544 65.4282H223.729C223.596 65.4282 223.575 65.4658 223.575 65.5938V66.3694C223.575 66.4974 223.596 66.535 223.729 66.535H224.294V68.2443C224.092 68.1163 223.82 67.8829 223.164 67.8829C221.788 67.8829 221.035 69.0198 221.035 71.2788C221.035 73.0934 221.663 74.1928 222.926 74.1928C223.771 74.1928 224.28 73.7259 224.49 73.5452C224.608 73.9142 224.566 73.9895 224.811 73.9895H226.298C226.43 73.9895 226.451 73.9518 226.451 73.8238V73.0482C226.451 72.9202 226.43 72.8826 226.298 72.8826ZM224.287 72.5814C224.141 72.7395 223.924 73.0031 223.366 73.0031C222.647 73.0031 222.438 72.4308 222.438 71.083C222.438 69.7578 222.605 69.0876 223.436 69.0876C223.959 69.0876 224.176 69.2683 224.287 69.3286V72.5814V72.5814Z" fill="black"/>
<path d="M230.227 67.8904C229.376 67.8904 228.28 68.1765 228.28 68.4551C228.28 68.5003 228.301 68.553 228.315 68.5982L228.538 69.3286C228.552 69.3737 228.594 69.449 228.65 69.449C228.796 69.449 229.404 69.0876 230.025 69.0876C230.723 69.0876 230.814 69.434 230.814 69.9686V70.3375C229.941 70.3375 227.924 70.3375 227.924 72.3555C227.924 73.4774 228.566 74.1928 229.585 74.1928C230.402 74.1928 230.793 73.7184 231.016 73.4774C231.058 73.6958 231.079 73.9895 231.351 73.9895H232.733C232.866 73.9895 232.887 73.9518 232.887 73.8238V73.0482C232.887 72.9202 232.852 72.8826 232.733 72.8826H232.258C232.203 72.6416 232.147 72.4383 232.147 71.8811V69.818C232.133 68.5681 231.609 67.8904 230.227 67.8904ZM230.8 72.6341C230.667 72.7772 230.381 73.0859 229.969 73.0859C229.55 73.0859 229.236 72.7395 229.236 72.2727C229.236 71.2185 230.52 71.3164 230.8 71.3164V72.6341Z" fill="black"/>
<path d="M242.812 71.6779C242.812 70.7668 242.421 70.1343 241.863 69.6825C240.886 68.9069 239.594 68.7413 239.594 67.8302C239.594 67.1148 240.125 66.8965 240.634 66.8965C240.997 66.8965 241.256 67.0019 241.374 67.0546V68.0109C241.374 68.1765 241.409 68.2142 241.563 68.2142H242.379C242.526 68.2142 242.568 68.1765 242.568 68.0109V66.3995C242.568 65.9251 241.36 65.6089 240.586 65.6089C239.301 65.6089 238.15 66.3242 238.15 68.0485C238.15 69.0424 238.527 69.5168 239.113 69.9008C240.244 70.6387 241.374 70.7517 241.374 71.8134C241.374 72.5513 240.997 72.9127 240.376 72.9127C239.902 72.9127 239.504 72.732 239.336 72.6718V71.58C239.336 71.4143 239.301 71.3767 239.148 71.3767H238.331C238.178 71.3767 238.143 71.4218 238.143 71.58V73.3871C238.143 73.9142 239.594 74.2003 240.425 74.2003C241.814 74.2003 242.812 73.1913 242.812 71.6779Z" fill="black"/>
<path d="M248.843 73.4925C248.843 73.4473 248.822 73.3946 248.808 73.3645L248.529 72.6492C248.508 72.604 248.459 72.5513 248.41 72.5513C248.257 72.5513 247.803 72.9428 247 72.9428C245.96 72.9428 245.779 72.1146 245.779 71.4519H248.759C248.969 71.4519 249.017 71.3766 249.017 71.1508C249.017 69.705 248.682 67.8904 246.805 67.8904C245.318 67.8904 244.376 69.2081 244.376 71.1056C244.376 73.3043 245.395 74.2003 246.854 74.2003C247.74 74.2003 248.843 73.8012 248.843 73.4925ZM246.728 69.0048C247.489 69.0048 247.524 69.8556 247.524 70.3451H245.786C245.821 70.0062 245.862 69.0048 246.728 69.0048Z" fill="black"/>
<path d="M250.253 66.5426H250.804V71.8962C250.804 72.9955 250.804 74.2003 252.165 74.2003C252.696 74.2003 253.282 74.0346 253.282 73.869C253.282 73.8313 253.268 73.8012 253.261 73.7711L253.038 72.7922C253.024 72.7471 252.996 72.7169 252.947 72.7169C252.877 72.7169 252.738 72.8224 252.514 72.8224C252.207 72.8224 252.207 72.491 252.207 72.107V65.5938C252.207 65.4658 252.186 65.4282 252.054 65.4282H250.246C250.113 65.4282 250.092 65.4658 250.092 65.5938V66.3694C250.099 66.5049 250.12 66.5426 250.253 66.5426Z" fill="black"/>
<path d="M254.434 71.1056C254.434 73.3043 255.453 74.2003 256.912 74.2003C257.784 74.2003 258.894 73.8087 258.894 73.4925C258.894 73.4473 258.873 73.3946 258.859 73.3645L258.58 72.6492C258.559 72.604 258.51 72.5513 258.461 72.5513C258.308 72.5513 257.854 72.9428 257.051 72.9428C256.011 72.9428 255.83 72.1146 255.83 71.4519H258.81C259.02 71.4519 259.068 71.3766 259.068 71.1508C259.068 69.705 258.733 67.8904 256.856 67.8904C255.376 67.8904 254.434 69.2081 254.434 71.1056ZM256.779 69.0048C257.54 69.0048 257.575 69.8556 257.575 70.3451H255.837C255.872 70.0062 255.914 69.0048 256.779 69.0048Z" fill="black"/>
<path d="M264.003 75.4804C264.003 74.8253 263.508 74.622 263.215 74.622L263.249 74.2003C263.738 74.2003 264.611 73.9518 264.611 73.7109C264.611 73.6732 264.59 73.628 264.576 73.5904L264.29 72.7998C264.269 72.7621 264.248 72.7395 264.213 72.7395C264.101 72.7395 263.794 73.0031 263.236 73.0031C262.384 73.0031 262.098 72.3932 262.098 71.083C262.098 69.7126 262.433 69.0876 263.208 69.0876C263.298 69.0876 263.382 69.1027 263.473 69.1328V70.0138C263.473 70.1568 263.508 70.1794 263.626 70.1794H264.422C264.548 70.1794 264.576 70.1568 264.576 70.0138V68.4024C264.576 68.0711 263.745 67.8904 263.215 67.8904C261.539 67.8904 260.604 69.1328 260.604 71.1658C260.604 73.0031 261.47 73.9518 262.363 74.1175L262.286 74.9909V75.0737C262.286 75.1716 262.328 75.2018 262.496 75.2018C262.67 75.2018 262.97 75.2394 262.97 75.4804C262.97 75.6385 262.824 75.7589 262.614 75.7589C262.356 75.7589 262.203 75.6761 262.147 75.6761C262.091 75.6761 262.091 75.7138 262.084 75.774L262.007 76.1806C261.993 76.2258 261.986 76.286 261.986 76.3237C261.986 76.4818 262.419 76.542 262.796 76.542C263.564 76.527 264.003 76.0978 264.003 75.4804Z" fill="black"/>
<path d="M266.663 66.6555L267.186 66.9416C267.221 66.9642 267.242 66.9793 267.284 66.9793C267.396 66.9793 267.451 66.5501 267.779 66.5501C268.087 66.5501 268.31 66.9717 268.84 66.9717C269.636 66.9717 270.006 65.91 270.006 65.8498C270.006 65.8046 269.964 65.767 269.929 65.7444L269.406 65.4583C269.385 65.4432 269.35 65.4357 269.329 65.4357C269.196 65.4357 269.155 65.8649 268.854 65.8649C268.554 65.8649 268.282 65.4507 267.724 65.4507C266.907 65.4507 266.586 66.535 266.586 66.5727C266.586 66.5952 266.621 66.6329 266.663 66.6555Z" fill="black"/>
<path d="M270.774 72.8826H270.299C270.243 72.6416 270.188 72.4383 270.188 71.8811V69.818C270.188 68.5756 269.664 67.8979 268.282 67.8979C267.43 67.8979 266.335 68.184 266.335 68.4626C266.335 68.5078 266.356 68.5605 266.37 68.6057L266.593 69.3361C266.607 69.3812 266.649 69.4565 266.705 69.4565C266.851 69.4565 267.458 69.0951 268.08 69.0951C268.778 69.0951 268.868 69.4415 268.868 69.9761V70.3451C267.996 70.3451 265.979 70.3451 265.979 72.363C265.979 73.485 266.621 74.2003 267.64 74.2003C268.457 74.2003 268.847 73.7259 269.071 73.485C269.113 73.7033 269.134 73.997 269.406 73.997H270.788C270.92 73.997 270.941 73.9593 270.941 73.8313V73.0558C270.927 72.9202 270.893 72.8826 270.774 72.8826ZM268.854 72.6341C268.722 72.7772 268.436 73.0859 268.024 73.0859C267.605 73.0859 267.291 72.7395 267.291 72.2727C267.291 71.2185 268.575 71.3164 268.854 71.3164V72.6341Z" fill="black"/>
<path d="M274.599 67.8904C273.105 67.8904 272.198 69.1177 272.198 71.0453C272.198 72.9654 273.105 74.2003 274.599 74.2003C276.093 74.2003 277 72.9729 277 71.0453C277 69.1177 276.079 67.8904 274.599 67.8904ZM274.599 73.0031C273.824 73.0031 273.691 72.1522 273.691 71.0453C273.691 69.9385 273.838 69.0876 274.599 69.0876C275.36 69.0876 275.506 69.9385 275.506 71.0453C275.506 72.1673 275.374 73.0031 274.599 73.0031Z" fill="black"/>
<path d="M185.423 86.4286H184.934C184.871 86.2027 184.823 85.9994 184.823 85.4271V79.1398C184.823 79.0042 184.802 78.9741 184.669 78.9741H182.854C182.722 78.9741 182.701 79.0118 182.701 79.1398V79.9153C182.701 80.0509 182.722 80.081 182.854 80.081H183.42V81.7902C183.217 81.6622 182.945 81.4288 182.289 81.4288C180.914 81.4288 180.16 82.5658 180.16 84.8247C180.16 86.6394 180.788 87.7387 182.052 87.7387C182.896 87.7387 183.406 87.2719 183.615 87.0912C183.734 87.4601 183.692 87.5354 183.936 87.5354H185.423C185.555 87.5354 185.576 87.4978 185.576 87.3698V86.5942C185.576 86.4662 185.555 86.4286 185.423 86.4286ZM183.42 86.1274C183.273 86.2855 183.057 86.549 182.498 86.549C181.779 86.549 181.57 85.9768 181.57 84.629C181.57 83.3037 181.737 82.6336 182.568 82.6336C183.092 82.6336 183.308 82.8143 183.42 82.8745V86.1274V86.1274Z" fill="black"/>
<path d="M197.086 84.3579C196.298 83.7931 195.307 83.8459 195.307 83.1757C195.307 82.7465 195.614 82.5809 196.039 82.5809C196.186 82.5809 196.326 82.6034 196.458 82.6185V83.2134C196.458 83.3489 196.493 83.379 196.612 83.379H197.38C197.498 83.379 197.526 83.3414 197.526 83.2134V81.986C197.526 81.602 196.57 81.4363 195.998 81.4363C194.804 81.4363 194.036 82.2947 194.036 83.3865C194.036 84.0793 194.357 84.5009 194.692 84.7344C195.425 85.2614 196.507 85.2614 196.507 85.9542C196.507 86.3834 196.2 86.549 195.83 86.549C195.474 86.549 195.202 86.4436 195.041 86.3834V85.7961C195.041 85.6304 195.027 85.5777 194.888 85.5777H194.134C194.015 85.5777 193.98 85.6153 193.98 85.7433V87.046C193.98 87.4375 195.286 87.7387 195.942 87.7387C197.114 87.7387 197.833 86.918 197.833 85.8186C197.826 85.1259 197.519 84.6741 197.086 84.3579Z" fill="black"/>
<path d="M206.823 83.251C207.242 83.0252 207.954 82.6411 207.954 81.4439C207.954 79.5238 206.447 79.3506 205.372 79.3506H202.845C202.656 79.3506 202.615 79.3883 202.615 79.5991V80.2467C202.615 80.465 202.656 80.4952 202.845 80.4952H203.41V86.3834H202.845C202.656 86.3834 202.615 86.4211 202.615 86.6319V87.2795C202.615 87.4828 202.656 87.5279 202.845 87.5279H205.455C206.886 87.5279 208.206 87.2042 208.206 85.2088C208.206 83.8459 207.34 83.4016 206.823 83.251ZM204.904 80.6081H205.372C205.979 80.6081 206.461 80.8566 206.461 81.6096C206.461 82.5508 205.909 82.7315 205.253 82.7315H204.911V80.6081H204.904ZM205.302 86.2855H204.904V83.989H205.323C206.063 83.989 206.705 84.117 206.705 85.126C206.712 86.1425 206.07 86.2855 205.302 86.2855Z" fill="black"/>
<path d="M213.105 81.4363C212.352 81.4363 211.94 82.1065 211.73 82.3776C211.654 82.0764 211.612 81.6396 211.319 81.6396H209.881C209.748 81.6396 209.727 81.6773 209.727 81.8053V82.5809C209.727 82.7089 209.748 82.7465 209.881 82.7465H210.411C210.467 82.995 210.523 83.1682 210.523 83.763V86.4286H209.957C209.825 86.4286 209.804 86.4662 209.804 86.5942V87.3698C209.804 87.4978 209.825 87.5354 209.957 87.5354H212.526C212.659 87.5354 212.68 87.4978 212.68 87.3698V86.5942C212.68 86.4662 212.659 86.4286 212.526 86.4286H211.926V83.379C212.072 83.2134 212.421 82.8068 212.77 82.8068C213.029 82.8068 213.224 82.9348 213.294 82.9348C213.336 82.9348 213.371 82.867 213.385 82.8293L213.727 81.8279C213.741 81.8053 213.748 81.7601 213.748 81.7074C213.748 81.5493 213.427 81.4363 213.105 81.4363Z" fill="black"/>
<path d="M219.715 86.4286H219.241C219.185 86.1876 219.129 85.9843 219.129 85.4271V83.3564C219.129 82.114 218.606 81.4363 217.224 81.4363C216.372 81.4363 215.276 81.7225 215.276 82.0011C215.276 82.0462 215.297 82.099 215.311 82.1441L215.535 82.8745C215.548 82.9197 215.59 82.995 215.646 82.995C215.793 82.995 216.4 82.6336 217.021 82.6336C217.719 82.6336 217.81 82.9799 217.81 83.5145V83.8835C216.937 83.8835 214.92 83.8835 214.92 85.9015C214.92 87.0234 215.562 87.7387 216.582 87.7387C217.398 87.7387 217.789 87.2644 218.012 87.0234C218.054 87.2418 218.075 87.5354 218.347 87.5354H219.729C219.862 87.5354 219.883 87.4978 219.883 87.3698V86.5942C219.869 86.4662 219.834 86.4286 219.715 86.4286ZM217.796 86.1725C217.663 86.3156 217.377 86.6243 216.965 86.6243C216.547 86.6243 216.233 86.278 216.233 85.8111C216.233 84.757 217.517 84.8548 217.796 84.8548V86.1725Z" fill="black"/>
<path d="M224.406 84.3579C223.617 83.7931 222.626 83.8459 222.626 83.1757C222.626 82.7465 222.933 82.5809 223.359 82.5809C223.506 82.5809 223.645 82.6034 223.778 82.6185V83.2134C223.778 83.3489 223.813 83.379 223.931 83.379H224.699C224.818 83.379 224.846 83.3414 224.846 83.2134V81.986C224.846 81.602 223.889 81.4363 223.317 81.4363C222.124 81.4363 221.356 82.2947 221.356 83.3865C221.356 84.0793 221.677 84.5009 222.012 84.7344C222.745 85.2614 223.827 85.2614 223.827 85.9542C223.827 86.3834 223.52 86.549 223.15 86.549C222.794 86.549 222.521 86.4436 222.361 86.3834V85.7961C222.361 85.6304 222.347 85.5777 222.207 85.5777H221.453C221.335 85.5777 221.3 85.6153 221.3 85.7433V87.046C221.3 87.4375 222.605 87.7387 223.261 87.7387C224.434 87.7387 225.153 86.918 225.153 85.8186C225.146 85.1259 224.839 84.6741 224.406 84.3579Z" fill="black"/>
<path d="M227.233 79.8702C227.233 80.4198 227.645 80.8641 228.154 80.8641C228.65 80.8641 229.062 80.4198 229.062 79.8702C229.062 79.3205 228.65 78.8913 228.154 78.8913C227.645 78.8913 227.233 79.3205 227.233 79.8702Z" fill="black"/>
<path d="M229.571 86.4286H228.859V81.8053C228.859 81.6773 228.838 81.6396 228.706 81.6396H226.737C226.605 81.6396 226.584 81.6773 226.584 81.8053V82.5809C226.584 82.7089 226.605 82.7465 226.737 82.7465H227.456V86.4286H226.744C226.612 86.4286 226.591 86.4662 226.591 86.5942V87.3698C226.591 87.4978 226.612 87.5354 226.744 87.5354H229.571C229.704 87.5354 229.725 87.4978 229.725 87.3698V86.5942C229.725 86.4662 229.704 86.4286 229.571 86.4286Z" fill="black"/>
<path d="M233.606 86.3307C233.592 86.2855 233.564 86.2554 233.515 86.2554C233.445 86.2554 233.305 86.3608 233.082 86.3608C232.775 86.3608 232.775 86.0295 232.775 85.6455V79.1323C232.775 78.9967 232.754 78.9666 232.621 78.9666H230.814C230.681 78.9666 230.66 79.0043 230.66 79.1323V79.9078C230.66 80.0434 230.681 80.0735 230.814 80.0735H231.365V85.4271C231.365 86.5265 231.365 87.7312 232.726 87.7312C233.257 87.7312 233.843 87.5656 233.843 87.3999C233.843 87.3623 233.829 87.3246 233.822 87.302L233.606 86.3307Z" fill="black"/>
<path d="M237.417 81.4363C235.93 81.4363 234.988 82.7465 234.988 84.6515C234.988 86.8502 236.007 87.7463 237.466 87.7463C238.338 87.7463 239.448 87.3547 239.448 87.0385C239.448 86.9933 239.427 86.9406 239.413 86.9105L239.134 86.1951C239.113 86.15 239.064 86.0972 239.015 86.0972C238.862 86.0972 238.408 86.4888 237.605 86.4888C236.565 86.4888 236.384 85.6681 236.384 84.9979H239.364C239.574 84.9979 239.622 84.9226 239.622 84.6967C239.629 83.251 239.301 81.4363 237.417 81.4363ZM236.398 83.8835C236.433 83.5522 236.474 82.5432 237.34 82.5432C238.101 82.5432 238.136 83.3941 238.136 83.8835H236.398Z" fill="black"/>
<path d="M241.661 79.8702C241.661 80.4198 242.072 80.8641 242.582 80.8641C243.077 80.8641 243.489 80.4198 243.489 79.8702C243.489 79.3205 243.077 78.8913 242.582 78.8913C242.072 78.8913 241.661 79.3205 241.661 79.8702Z" fill="black"/>
<path d="M243.999 86.4286H243.287V81.8053C243.287 81.6773 243.266 81.6396 243.133 81.6396H241.165C241.032 81.6396 241.011 81.6773 241.011 81.8053V82.5809C241.011 82.7089 241.032 82.7465 241.165 82.7465H241.884V86.4286H241.172C241.039 86.4286 241.018 86.4662 241.018 86.5942V87.3698C241.018 87.4978 241.039 87.5354 241.172 87.5354H243.999C244.131 87.5354 244.152 87.4978 244.152 87.3698V86.5942C244.152 86.4662 244.131 86.4286 243.999 86.4286Z" fill="black"/>
<path d="M248.948 81.4363C248.194 81.4363 247.782 82.1065 247.573 82.3776C247.496 82.0764 247.454 81.6396 247.161 81.6396H245.723C245.59 81.6396 245.569 81.6773 245.569 81.8053V82.5809C245.569 82.7089 245.59 82.7465 245.723 82.7465H246.253C246.309 82.995 246.365 83.1682 246.365 83.763V86.4286H245.8C245.667 86.4286 245.646 86.4662 245.646 86.5942V87.3698C245.646 87.4978 245.667 87.5354 245.8 87.5354H248.368C248.501 87.5354 248.522 87.4978 248.522 87.3698V86.5942C248.522 86.4662 248.501 86.4286 248.368 86.4286H247.768V83.379C247.915 83.2134 248.264 82.8068 248.613 82.8068C248.871 82.8068 249.066 82.9348 249.136 82.9348C249.178 82.9348 249.213 82.867 249.227 82.8293L249.569 81.8279C249.583 81.8053 249.59 81.7601 249.59 81.7074C249.59 81.5493 249.269 81.4363 248.948 81.4363Z" fill="black"/>
<path d="M260.618 84.3579C259.829 83.7931 258.838 83.8459 258.838 83.1757C258.838 82.7465 259.145 82.5809 259.571 82.5809C259.718 82.5809 259.857 82.6034 259.99 82.6185V83.2134C259.99 83.3489 260.025 83.379 260.143 83.379H260.911C261.03 83.379 261.058 83.3414 261.058 83.2134V81.986C261.058 81.602 260.102 81.4363 259.529 81.4363C258.336 81.4363 257.568 82.2947 257.568 83.3865C257.568 84.0793 257.889 84.5009 258.224 84.7344C258.957 85.2614 260.039 85.2614 260.039 85.9542C260.039 86.3834 259.732 86.549 259.362 86.549C259.006 86.549 258.734 86.4436 258.573 86.3834V85.7961C258.573 85.6304 258.559 85.5777 258.419 85.5777H257.666C257.547 85.5777 257.512 85.6153 257.512 85.7433V87.046C257.512 87.4375 258.817 87.7387 259.473 87.7387C260.646 87.7387 261.365 86.918 261.365 85.8186C261.365 85.1259 261.051 84.6741 260.618 84.3579Z" fill="black"/>
<path d="M263.647 85.4723C263.082 85.4723 262.593 85.9768 262.593 86.6093C262.593 87.2418 263.082 87.7463 263.647 87.7463C264.22 87.7463 264.701 87.2418 264.701 86.6093C264.694 85.9693 264.22 85.4723 263.647 85.4723Z" fill="black"/>
<path d="M192.64 81.2255C192.375 80.9846 192.054 80.7963 191.691 80.6683C191.321 80.5403 190.916 80.4725 190.462 80.4725C189.897 80.4725 189.367 80.5779 188.871 80.7888C188.375 80.9996 187.95 81.3008 187.58 81.6848C187.21 82.0688 186.917 82.5206 186.707 83.0552C186.491 83.5823 186.386 84.1696 186.386 84.8021C186.386 85.3744 186.477 85.8714 186.651 86.293C186.826 86.7147 187.07 87.0535 187.377 87.3321C187.684 87.6032 188.047 87.8065 188.466 87.942C188.885 88.0776 189.339 88.1453 189.834 88.1453C190.079 88.1453 190.33 88.1303 190.588 88.0926C190.846 88.0625 191.091 88.0173 191.328 87.9571C191.565 87.8969 191.782 87.8291 191.984 87.7538C192.186 87.6785 192.347 87.5957 192.487 87.5053C192.542 87.4601 192.577 87.43 192.591 87.3999C192.605 87.3698 192.605 87.3246 192.577 87.2493L192.361 86.5942C192.34 86.534 192.305 86.5114 192.256 86.534C192.207 86.549 192.166 86.5716 192.131 86.5867C191.775 86.7599 191.412 86.8879 191.035 86.9707C190.658 87.0535 190.253 87.0987 189.82 87.0987C189.506 87.0987 189.213 87.0611 188.927 86.9858C188.648 86.9105 188.396 86.79 188.173 86.6168C187.957 86.4436 187.782 86.2102 187.649 85.9165C187.517 85.6229 187.454 85.2614 187.454 84.8323C187.454 84.3654 187.524 83.9287 187.67 83.5145C187.817 83.1004 188.019 82.7465 188.278 82.4378C188.536 82.1291 188.85 81.8957 189.22 81.7149C189.583 81.5418 189.988 81.4514 190.435 81.4514C190.77 81.4514 191.07 81.5041 191.328 81.602C191.586 81.6999 191.803 81.8354 191.97 82.0086C192.145 82.1818 192.27 82.3851 192.354 82.611C192.438 82.8444 192.48 83.0929 192.48 83.3564C192.48 83.5823 192.452 83.8082 192.396 84.0341C192.34 84.26 192.27 84.4633 192.173 84.6365C192.082 84.8172 191.977 84.9603 191.865 85.0732C191.754 85.1861 191.635 85.2464 191.509 85.2464C191.384 85.2464 191.307 85.2087 191.279 85.141C191.251 85.0732 191.258 84.9678 191.286 84.8323L191.677 82.7992C191.691 82.754 191.691 82.7089 191.691 82.6712C191.691 82.6336 191.656 82.6185 191.593 82.6185H190.937C190.874 82.6185 190.832 82.6411 190.811 82.6938C190.79 82.7465 190.77 82.7917 190.742 82.8444C190.567 82.6486 190.281 82.5507 189.904 82.5507C189.702 82.5507 189.513 82.6185 189.332 82.754C189.15 82.8896 188.997 83.0703 188.857 83.2887C188.724 83.507 188.613 83.7706 188.536 84.0567C188.452 84.3503 188.417 84.6515 188.417 84.9603C188.417 85.3066 188.487 85.5928 188.634 85.8111C188.78 86.0295 189.011 86.1424 189.325 86.1424C189.534 86.1424 189.716 86.0972 189.855 86.0069C190.002 85.9165 190.148 85.7885 190.295 85.6379C190.379 85.9768 190.644 86.15 191.105 86.15C191.426 86.15 191.733 86.0822 192.012 85.9467C192.298 85.8111 192.549 85.6229 192.766 85.3744C192.982 85.1259 193.157 84.8323 193.282 84.4784C193.408 84.1245 193.471 83.7329 193.471 83.2962C193.471 82.8519 193.401 82.4604 193.254 82.114C193.108 81.7601 192.905 81.4665 192.64 81.2255ZM190.386 84.388C190.344 84.6515 190.253 84.8548 190.12 85.0054C189.988 85.156 189.869 85.2313 189.757 85.2313C189.653 85.2313 189.59 85.2012 189.562 85.1485C189.534 85.0883 189.527 85.0054 189.527 84.885C189.527 84.7946 189.541 84.6741 189.562 84.516C189.583 84.3579 189.618 84.1998 189.667 84.0416C189.716 83.8835 189.771 83.7555 189.848 83.635C189.918 83.5221 190.002 83.4618 190.099 83.4618C190.169 83.4618 190.246 83.4844 190.323 83.5296C190.4 83.5748 190.462 83.6275 190.518 83.6877L190.386 84.388Z" fill="black"/>
<path d="M256.179 81.2255C255.913 80.9846 255.592 80.7963 255.229 80.6683C254.86 80.5403 254.455 80.4725 254.001 80.4725C253.436 80.4725 252.905 80.5779 252.41 80.7888C251.914 80.9996 251.488 81.3008 251.118 81.6848C250.748 82.0688 250.455 82.5206 250.246 83.0552C250.029 83.5823 249.925 84.1696 249.925 84.8021C249.925 85.3744 250.015 85.8714 250.19 86.293C250.364 86.7147 250.609 87.0535 250.916 87.3321C251.223 87.6032 251.586 87.8065 252.005 87.942C252.424 88.0776 252.877 88.1453 253.373 88.1453C253.617 88.1453 253.868 88.1303 254.127 88.0926C254.385 88.0625 254.629 88.0173 254.867 87.9571C255.104 87.8969 255.32 87.8291 255.523 87.7538C255.725 87.6785 255.886 87.5957 256.025 87.5053C256.081 87.4601 256.116 87.43 256.13 87.3999C256.144 87.3698 256.144 87.3246 256.116 87.2493L255.9 86.5942C255.879 86.534 255.844 86.5114 255.795 86.534C255.746 86.549 255.704 86.5716 255.669 86.5867C255.313 86.7599 254.95 86.8879 254.573 86.9707C254.196 87.0535 253.792 87.0987 253.359 87.0987C253.045 87.0987 252.752 87.0611 252.465 86.9858C252.186 86.9105 251.935 86.79 251.712 86.6168C251.495 86.4436 251.321 86.2102 251.188 85.9165C251.055 85.6229 250.993 85.2614 250.993 84.8323C250.993 84.3654 251.062 83.9287 251.209 83.5145C251.356 83.1004 251.558 82.7465 251.816 82.4378C252.075 82.1291 252.389 81.8957 252.759 81.7149C253.122 81.5418 253.526 81.4514 253.973 81.4514C254.308 81.4514 254.608 81.5041 254.867 81.602C255.125 81.6999 255.341 81.8354 255.509 82.0086C255.683 82.1818 255.809 82.3851 255.893 82.611C255.976 82.8444 256.018 83.0929 256.018 83.3564C256.018 83.5823 255.99 83.8082 255.934 84.0341C255.879 84.26 255.809 84.4633 255.711 84.6365C255.62 84.8172 255.516 84.9603 255.404 85.0732C255.292 85.1861 255.174 85.2464 255.048 85.2464C254.922 85.2464 254.846 85.2087 254.818 85.141C254.79 85.0732 254.797 84.9678 254.825 84.8323L255.216 82.7992C255.229 82.754 255.229 82.7089 255.229 82.6712C255.229 82.6336 255.195 82.6185 255.132 82.6185H254.476C254.413 82.6185 254.371 82.6411 254.35 82.6938C254.329 82.7465 254.308 82.7917 254.28 82.8444C254.106 82.6486 253.82 82.5507 253.443 82.5507C253.24 82.5507 253.052 82.6185 252.87 82.754C252.689 82.8896 252.535 83.0703 252.396 83.2887C252.263 83.507 252.151 83.7706 252.075 84.0567C251.991 84.3503 251.956 84.6515 251.956 84.9603C251.956 85.3066 252.026 85.5928 252.172 85.8111C252.319 86.0295 252.549 86.1424 252.863 86.1424C253.073 86.1424 253.254 86.0972 253.394 86.0069C253.54 85.9165 253.687 85.7885 253.833 85.6379C253.917 85.9768 254.182 86.15 254.643 86.15C254.964 86.15 255.271 86.0822 255.551 85.9467C255.837 85.8111 256.088 85.6229 256.304 85.3744C256.521 85.1259 256.695 84.8323 256.821 84.4784C256.947 84.1245 257.009 83.7329 257.009 83.2962C257.009 82.8519 256.94 82.4604 256.793 82.114C256.653 81.7601 256.444 81.4665 256.179 81.2255ZM253.924 84.388C253.882 84.6515 253.792 84.8548 253.659 85.0054C253.526 85.156 253.408 85.2313 253.296 85.2313C253.191 85.2313 253.128 85.2012 253.101 85.1485C253.073 85.0883 253.066 85.0054 253.066 84.885C253.066 84.7946 253.08 84.6741 253.101 84.516C253.121 84.3579 253.156 84.1998 253.205 84.0416C253.254 83.8835 253.31 83.7555 253.387 83.635C253.457 83.5221 253.54 83.4618 253.638 83.4618C253.708 83.4618 253.785 83.4844 253.861 83.5296C253.938 83.5748 254.001 83.6275 254.057 83.6877L253.924 84.388Z" fill="black"/>
</g>
<path fill-rule="evenodd" clip-rule="evenodd" d="M106.157 7.48344L106.287 7.36275C106.105 7.03411 106.031 6.45655 106.044 6.10528C106.109 3.22289 108.909 1.58289 113.284 1.58289H115.697C114.289 2.48047 113.113 3.65929 112.208 5.88977C111.821 6.84554 109.968 12.0015 109.214 14.3236C108.272 17.0799 107.674 18.3331 106.928 18.7899L107.055 19.0399C109.151 19.18 110.399 18.0141 111.203 15.858C111.972 13.8258 112.983 10.5781 113.482 9.13529C115.09 4.49868 115.796 2.54836 117.082 1.58289C118.869 1.57427 120.594 1.57427 120.594 1.57427C122.516 1.51932 123.336 0.997791 123.94 0.185334L123.802 0C123.319 0.27908 122.278 0.33942 121.392 0.344808H112.713C107.825 0.344808 104.832 2.09148 104.343 4.69264C104.105 5.95335 104.746 7.31857 106.157 7.48344ZM139.001 23.2735C118.664 23.2735 98 23.5429 98 23.8716C98 24.197 118.664 24.4771 139.001 24.4771C159.341 24.4771 180 24.197 180 23.8716C180 23.5429 159.341 23.2735 139.001 23.2735ZM159.115 3.78536C159.675 3.77781 160.236 3.21534 160.355 2.54189C160.492 1.85227 160.123 1.3189 159.564 1.33829C159.006 1.33829 158.452 1.89429 158.319 2.58499C158.2 3.25952 158.545 3.79829 159.115 3.78536ZM131.104 6.22273C131.403 6.22273 131.526 6.44901 131.526 6.73671C131.515 8.09763 129.981 9.84322 127.998 11.1126C128.498 9.00275 129.885 6.2001 131.104 6.22273ZM125.298 13.3139C125.286 14.7287 125.97 15.9065 127.718 15.8386C129.589 15.7879 131.298 14.6027 132.772 12.9153C132.401 13.9982 132.089 14.9313 131.892 15.4302C131.347 16.9247 130.942 18.1305 130.101 18.8277L130.194 19.0141C132.661 19.1703 133.587 17.276 134.609 14.1867C135.621 11.0975 136.483 8.41119 137.151 6.54922C138.235 6.54922 139.764 6.59124 140.626 6.37897C138.385 7.46404 136.483 11.3572 136.705 13.9238C136.804 15.0574 137.431 15.8386 138.756 15.8386C141.326 15.8386 143.489 12.5273 144.309 10.341C144.784 9.08895 145.1 8.01789 145.15 6.94036C145.762 6.82722 146.344 6.713 146.636 6.66451C147.2 6.58047 147.091 7.25823 146.913 7.7679C145.86 10.966 144.047 15.6069 144.035 15.6824H146.042C146.913 13.7083 147.452 12.4465 148.141 11.1072C148.982 9.52751 150.847 6.92743 151.593 6.91773C151.854 6.91773 151.924 7.10092 151.858 7.37784C151.726 8.45106 149.323 12.5543 149.365 14.5757C149.388 15.8979 150.024 16.6985 151.14 17.0023L151.377 16.8569C151.233 16.5681 151.214 16.2071 151.211 15.788C151.195 14.4335 152.2 12.0694 152.592 11.1503C153.21 9.71177 154.317 7.6052 154.244 6.45655C154.213 5.88977 153.821 5.38657 152.937 5.37902C151.299 5.36933 149.667 7.10091 148.3 9.42299L148.267 9.41544C148.814 8.0653 149.24 6.81214 149.225 6.2001C149.214 5.64625 148.922 5.42213 148.312 5.42213C147.882 5.43398 147.296 5.61716 146.709 5.78956C145.903 6.01476 145.052 6.25182 144.116 6.46733C143.547 6.54922 143.346 6.66452 143.363 6.88972C143.479 10.4391 141.261 14.6113 139.782 14.6253C139.149 14.6253 139.007 14.121 139.007 13.4206C139.001 10.966 140.853 6.84554 142.658 6.19364C142.816 6.14623 142.973 6.10528 143.079 6.06972L143.304 5.40704C142.923 5.49647 142.009 5.51048 141.532 5.52233H137.559C138.609 2.79834 140.08 1.03874 142.234 0.932061C143.571 0.88465 144.477 1.43742 144.556 2.2682C144.61 2.98368 144.431 3.55585 143.91 4.14741L144.054 4.31012C145.236 3.70131 146.052 2.66796 146.055 1.95895C146.073 0.86849 144.864 0.19611 142.935 0.218738C140.485 0.237056 137.47 0.839394 135.356 5.60423C134.725 5.70551 134.157 5.96735 133.68 6.52336L133.765 6.73671C134.108 6.60094 134.517 6.58047 134.971 6.58047C134.679 7.36275 134.088 9.05447 133.506 10.799C131.732 13.3538 129.947 14.5757 128.636 14.5757C127.925 14.5973 127.64 14.1695 127.632 13.4206C127.625 12.9508 127.728 12.2946 127.815 11.9519C129.213 11.1912 130.616 10.3313 131.888 8.91009C132.583 8.08793 133.068 7.25823 133.085 6.40375C133.097 5.60422 132.644 5.19153 131.714 5.17645C130.385 5.16028 128.784 6.15592 127.739 7.36275C126.376 8.98336 125.32 11.2742 125.298 13.3139ZM170.648 6.55568C171.234 6.25182 171.724 6.23566 172.134 6.32509C171.979 6.6796 171.273 8.22693 170.725 9.62341C169.856 11.8065 168.553 14.0079 167.345 14.3236C166.933 14.454 166.683 14.2579 166.69 13.8053C166.728 11.869 168.678 7.55886 170.648 6.55568ZM153.499 14.3538C153.499 15.3192 154.061 15.9183 155.135 15.8795C156.249 15.858 157.384 15.1382 158.319 14.1544C158.5 15.1953 159.187 15.956 160.595 15.8979C162.061 15.8386 163.459 14.8397 164.433 13.6814V14.0154C164.433 15.0908 164.939 15.8914 166.063 15.8914C167.276 15.8914 168.666 14.8958 169.771 13.1954L169.806 13.2105C169.704 13.6135 169.584 14.302 169.569 14.7589C169.548 16.0487 170.255 16.7879 171.226 17.0023L171.463 16.9C171.108 15.9604 171.607 13.6372 171.812 12.8646C172.537 10.3206 173.692 7.41232 174.361 5.90055C174.057 5.61716 173.346 5.42535 172.586 5.38656C170.067 5.28635 167.533 6.41884 165.684 9.97899C165.367 10.6029 165.022 11.3173 164.768 12.0694C164.502 12.4508 164.227 12.7892 164.111 12.9153C163.44 13.6135 162.495 14.5111 161.531 14.5272C160.979 14.538 160.68 14.1189 160.689 13.3721C160.702 10.5221 163.011 6.19364 164.579 6.18071C165.01 6.18071 165.193 6.38328 165.193 6.78412C165.193 7.25823 164.895 7.90906 164.474 8.33145L164.656 8.51463C165.709 8.07284 166.683 7.27547 166.69 6.42638C166.69 5.45768 165.665 5.27773 164.757 5.28636C163.533 5.30467 162.012 5.95981 160.785 7.41232C159.253 9.23442 158.466 11.4186 158.307 12.981C157.61 13.8743 156.828 14.4788 156.304 14.4863C156.011 14.4971 155.796 14.3236 155.796 13.9906C155.796 13.69 155.953 13.0844 156.223 12.2946C156.9 10.4596 157.881 8.16767 159.082 5.4523C159.082 5.4523 157.251 5.78956 156.988 5.8693C156.712 5.94257 156.497 6.14622 156.374 6.41884C155.589 8.22693 154.657 10.3206 154.083 11.8808C153.718 12.8646 153.499 13.7934 153.499 14.3538ZM120.23 6.22273C120.533 6.22273 120.638 6.44901 120.638 6.73671C120.638 8.09763 119.095 9.84322 117.124 11.1126C117.621 9.00275 119.012 6.2001 120.23 6.22273ZM122.056 10.882C120.827 12.8161 119.114 14.5757 117.644 14.5757C117.016 14.5973 116.742 14.2072 116.753 13.4206C116.753 12.9508 116.857 12.2881 116.94 11.9519C118.33 11.1912 119.747 10.3313 121.007 8.91009C121.713 8.08793 122.181 7.25823 122.205 6.40375C122.216 5.60422 121.753 5.19153 120.835 5.17645C119.502 5.16028 117.904 6.15592 116.864 7.36275C115.496 8.98336 114.447 11.2742 114.422 13.3139C114.407 14.7589 115.037 15.9065 116.742 15.8386C118.567 15.7879 120.365 14.2492 121.288 13.1383C121.18 13.6135 121.099 14.0618 121.099 14.4281C121.099 15.7125 121.689 16.6198 122.844 17.0088L123.076 16.8892C122.971 16.5444 122.944 16.1812 122.971 15.775C123.054 14.5272 123.506 13.1189 124.174 11.2656C125.452 7.76791 127.308 3.76488 128.125 1.4051L126.177 1.80378C125.875 1.87382 125.681 2.12597 125.581 2.36733C124.642 4.54178 123.678 6.86063 122.475 9.88525C122.337 10.2042 122.205 10.5458 122.056 10.882Z" fill="#004250"/>
<path fill-rule="evenodd" clip-rule="evenodd" d="M168.098 123.605C168.098 128.893 172.101 133.181 177.039 133.181C181.977 133.181 185.981 128.893 185.981 123.605C185.981 118.316 181.977 114.029 177.039 114.029C172.101 114.029 168.098 118.316 168.098 123.605Z" fill="#EB3C7D"/>
<path fill-rule="evenodd" clip-rule="evenodd" d="M177.039 124.562C176.546 124.562 176.146 124.133 176.146 123.605C176.146 123.076 176.546 122.648 177.039 122.648C177.533 122.648 177.933 123.076 177.933 123.605C177.933 124.133 177.533 124.562 177.039 124.562Z" fill="white"/>
<path fill-rule="evenodd" clip-rule="evenodd" d="M179.915 124.562C179.422 124.562 179.021 124.133 179.021 123.605C179.021 123.076 179.422 122.648 179.915 122.648C180.408 122.648 180.809 123.076 180.809 123.605C180.809 124.133 180.408 124.562 179.915 124.562Z" fill="white"/>
<path fill-rule="evenodd" clip-rule="evenodd" d="M174.164 124.562C173.67 124.562 173.27 124.133 173.27 123.605C173.27 123.076 173.67 122.648 174.164 122.648C174.657 122.648 175.058 123.076 175.058 123.605C175.058 124.133 174.657 124.562 174.164 124.562Z" fill="white"/>
<path fill-rule="evenodd" clip-rule="evenodd" d="M148.045 123.605C148.045 128.893 152.047 133.181 156.986 133.181C161.924 133.181 165.928 128.893 165.928 123.605C165.928 118.316 161.924 114.029 156.986 114.029C152.047 114.029 148.045 118.316 148.045 123.605Z" fill="#99CC33"/>
<path fill-rule="evenodd" clip-rule="evenodd" d="M162.342 119.366C162.342 119.366 160.339 117.403 157.08 117.403C153.821 117.403 151.706 119.392 151.706 119.392C151.527 119.542 151.492 119.822 151.628 120.019L151.886 120.423C152.021 120.62 152.247 120.656 152.456 120.508C152.664 120.361 154.272 118.846 157.076 118.846C159.935 118.846 161.431 120.375 161.603 120.513C161.774 120.651 162.042 120.596 162.167 120.39L162.454 119.986C162.58 119.78 162.53 119.503 162.342 119.366Z" fill="white"/>
<path fill-rule="evenodd" clip-rule="evenodd" d="M156.987 122.89C156.493 122.89 156.093 122.461 156.093 121.933C156.093 121.404 156.493 120.976 156.987 120.976C157.48 120.976 157.88 121.404 157.88 121.933C157.88 122.461 157.48 122.89 156.987 122.89Z" fill="white"/>
<path fill-rule="evenodd" clip-rule="evenodd" d="M159.637 122.89C159.143 122.89 158.743 122.461 158.743 121.933C158.743 121.404 159.143 120.976 159.637 120.976C160.13 120.976 160.531 121.404 160.531 121.933C160.531 122.461 160.13 122.89 159.637 122.89Z" fill="white"/>
<path fill-rule="evenodd" clip-rule="evenodd" d="M154.337 122.89C153.843 122.89 153.443 122.461 153.443 121.933C153.443 121.404 153.843 120.976 154.337 120.976C154.83 120.976 155.23 121.404 155.23 121.933C155.23 122.461 154.83 122.89 154.337 122.89Z" fill="white"/>
<path fill-rule="evenodd" clip-rule="evenodd" d="M156.987 125.95C156.493 125.95 156.093 125.521 156.093 124.993C156.093 124.464 156.493 124.037 156.987 124.037C157.48 124.037 157.88 124.464 157.88 124.993C157.88 125.521 157.48 125.95 156.987 125.95Z" fill="white"/>
<path fill-rule="evenodd" clip-rule="evenodd" d="M159.637 125.95C159.143 125.95 158.743 125.521 158.743 124.993C158.743 124.464 159.143 124.037 159.637 124.037C160.13 124.037 160.531 124.464 160.531 124.993C160.531 125.521 160.13 125.95 159.637 125.95Z" fill="white"/>
<path fill-rule="evenodd" clip-rule="evenodd" d="M154.337 125.95C153.843 125.95 153.443 125.521 153.443 124.993C153.443 124.464 153.843 124.037 154.337 124.037C154.83 124.037 155.23 124.464 155.23 124.993C155.23 125.521 154.83 125.95 154.337 125.95Z" fill="white"/>
<path fill-rule="evenodd" clip-rule="evenodd" d="M156.987 128.989C156.493 128.989 156.093 128.559 156.093 128.032C156.093 127.503 156.493 127.075 156.987 127.075C157.48 127.075 157.88 127.503 157.88 128.032C157.88 128.559 157.48 128.989 156.987 128.989Z" fill="white"/>
<path fill-rule="evenodd" clip-rule="evenodd" d="M159.637 128.989C159.143 128.989 158.743 128.559 158.743 128.032C158.743 127.503 159.143 127.075 159.637 127.075C160.13 127.075 160.531 127.503 160.531 128.032C160.531 128.559 160.13 128.989 159.637 128.989Z" fill="white"/>
<path fill-rule="evenodd" clip-rule="evenodd" d="M154.337 128.989C153.843 128.989 153.443 128.559 153.443 128.032C153.443 127.503 153.843 127.075 154.337 127.075C154.83 127.075 155.23 127.503 155.23 128.032C155.23 128.559 154.83 128.989 154.337 128.989Z" fill="white"/>
<path fill-rule="evenodd" clip-rule="evenodd" d="M107.937 123.605C107.937 128.893 111.94 133.181 116.879 133.181C121.817 133.181 125.821 128.893 125.821 123.605C125.821 118.316 121.817 114.029 116.879 114.029C111.94 114.029 107.937 118.316 107.937 123.605Z" fill="#FF9900"/>
<path fill-rule="evenodd" clip-rule="evenodd" d="M116.879 130.041C113.627 130.041 110.982 127.208 110.982 123.726C110.982 120.243 113.627 117.41 116.879 117.41C120.131 117.41 122.777 120.243 122.777 123.726C122.777 125.024 122.35 126.188 121.605 126.918C120.92 127.59 120.1 127.643 119.865 127.643C119.148 127.643 118.493 127.377 118.068 126.914C117.986 126.824 117.829 126.669 117.648 126.49C117.511 126.355 117.357 126.202 117.205 126.048L117.181 126.023C117.101 125.942 117.025 125.864 116.917 125.864C116.774 125.864 116.675 125.998 116.602 126.096L116.557 126.156C115.899 127.023 115.837 127.095 115.829 127.104C115.748 127.2 115.632 127.256 115.511 127.256C115.415 127.256 115.32 127.22 115.244 127.154C115.242 127.15 114.984 126.929 114.983 126.928C114.814 126.78 114.781 126.507 114.915 126.311C114.942 126.271 115.708 125.262 116.011 124.86C116.067 124.784 116.133 124.67 116.133 124.551C116.133 124.335 116.018 124.197 115.779 124.132C115.779 124.132 115.755 124.126 115.714 124.116C114.935 123.914 114.754 123.867 114.739 123.862C114.52 123.794 114.391 123.555 114.444 123.319C114.504 123.052 114.518 122.99 114.521 122.972L114.52 122.977C114.567 122.772 114.736 122.629 114.933 122.629C114.959 122.629 114.986 122.632 115.012 122.637C115.042 122.643 115.567 122.777 116.007 122.89L116.032 122.896C116.1 122.912 116.17 122.929 116.234 122.929C116.339 122.929 116.409 122.882 116.441 122.789C116.508 122.596 116.378 122.506 116.252 122.419C116.182 122.371 116.103 122.313 116.012 122.214C115.757 121.941 115.666 121.554 115.666 121.282C115.666 120.554 116.227 119.961 116.917 119.961C117.606 119.961 118.166 120.554 118.166 121.282C118.166 121.554 118.075 121.941 117.821 122.214C117.729 122.313 117.65 122.371 117.584 122.417C117.455 122.505 117.324 122.596 117.392 122.789C117.424 122.882 117.494 122.929 117.599 122.929C117.662 122.929 117.733 122.912 117.801 122.896L118.441 122.732C118.557 122.702 118.8 122.641 118.819 122.637C118.847 122.632 118.872 122.629 118.899 122.629C119.096 122.629 119.266 122.772 119.312 122.977C119.312 122.979 119.387 123.317 119.389 123.321C119.442 123.555 119.312 123.794 119.095 123.862C119.079 123.867 118.899 123.914 118.663 123.975L118.221 124.089C118.049 124.134 118.049 124.134 118.044 124.136C117.815 124.198 117.7 124.335 117.7 124.551C117.7 124.67 117.766 124.784 117.821 124.86C117.827 124.867 118.333 125.497 118.868 125.957C119.266 126.297 119.599 126.344 119.899 126.344C120.192 126.344 120.581 126.176 120.804 125.955C121.309 125.453 121.565 124.704 121.565 123.726C121.565 120.959 119.463 118.708 116.879 118.708C114.295 118.708 112.193 120.959 112.193 123.726C112.193 126.492 114.295 128.743 116.879 128.743C117.099 128.743 117.668 128.714 118.003 128.653C118.003 128.653 118.033 128.65 118.041 128.65C118.257 128.637 118.447 128.803 118.484 129.037L118.54 129.392C118.581 129.637 118.438 129.872 118.218 129.928L118.178 129.939C117.86 130.006 117.333 130.041 116.879 130.041Z" fill="white"/>
<path fill-rule="evenodd" clip-rule="evenodd" d="M87.8835 123.605C87.8835 128.893 91.8877 133.181 96.8253 133.181C101.764 133.181 105.767 128.893 105.767 123.605C105.767 118.316 101.764 114.029 96.8253 114.029C91.8877 114.029 87.8835 118.316 87.8835 123.605Z" fill="#660099"/>
<path fill-rule="evenodd" clip-rule="evenodd" d="M100.144 118.288H99.5724C99.3745 118.288 99.2144 118.459 99.2144 118.671V128.243C99.2144 128.455 99.3745 128.626 99.5724 128.626H100.144C100.342 128.626 100.501 128.455 100.501 128.243V118.671C100.501 118.459 100.342 118.288 100.144 118.288Z" fill="white"/>
<path fill-rule="evenodd" clip-rule="evenodd" d="M97.7088 119.585H97.137C96.9391 119.585 96.779 119.756 96.779 119.968V128.243C96.779 128.455 96.9391 128.626 97.137 128.626H97.7088C97.9063 128.626 98.0664 128.455 98.0664 128.243V119.968C98.0664 119.756 97.9063 119.585 97.7088 119.585Z" fill="white"/>
<path fill-rule="evenodd" clip-rule="evenodd" d="M95.3674 120.937H94.796C94.5984 120.937 94.4383 121.107 94.4383 121.32V128.243C94.4383 128.455 94.5984 128.626 94.796 128.626H95.3674C95.5657 128.626 95.725 128.455 95.725 128.243V121.32C95.725 121.107 95.5657 120.937 95.3674 120.937Z" fill="white"/>
<path fill-rule="evenodd" clip-rule="evenodd" d="M93.1055 121.97H92.5338C92.3358 121.97 92.1758 122.141 92.1758 122.353V128.243C92.1758 128.455 92.3358 128.626 92.5338 128.626H93.1055C93.3031 128.626 93.4628 128.455 93.4628 128.243V122.353C93.4628 122.141 93.3031 121.97 93.1055 121.97Z" fill="white"/>
<path fill-rule="evenodd" clip-rule="evenodd" d="M45.4513 130.991C45.3656 131.204 45.3376 131.265 45.0812 131.265H43.9722C43.7165 131.265 43.6882 131.144 43.6308 130.991L39.2797 118.107H38.3407C38.1137 118.107 38 117.985 38 117.742V116.584C38 116.34 38.1137 116.219 38.3407 116.219H43.176C43.3747 116.219 43.4884 116.34 43.4884 116.584V117.65C43.4884 117.893 43.3747 117.985 43.176 117.985H41.5829L44.0859 126.148C44.2854 126.788 44.4557 127.488 44.5977 128.067H44.6551C44.7964 127.336 44.9108 126.91 45.1669 126.179L47.9257 117.985H46.2192C45.9911 117.985 45.9061 117.893 45.9061 117.65V116.584C45.9061 116.34 45.9911 116.219 46.2192 116.219H50.9688C51.1966 116.219 51.3103 116.34 51.3103 116.584V117.742C51.3103 117.985 51.1966 118.107 50.9688 118.107H50.1443L45.4513 130.991Z" fill="#231F20"/>
<path fill-rule="evenodd" clip-rule="evenodd" d="M59.7798 130.473C59.7798 130.717 59.6661 130.839 59.4387 130.839H53.2096C52.9822 130.839 52.8682 130.717 52.8682 130.473V129.316C52.8682 129.072 52.9822 128.951 53.2096 128.951H55.2575V118.107H53.0109C52.7828 118.107 52.6691 117.986 52.6691 117.741V116.584C52.6691 116.34 52.7828 116.219 53.0109 116.219H57.0497C57.3621 116.219 57.4195 116.402 57.4195 116.676V128.951H59.4387C59.6661 128.951 59.7798 129.072 59.7798 129.316V130.473ZM56.1678 112.716C55.2005 112.716 54.433 111.894 54.433 110.858C54.433 109.822 55.2005 109 56.1678 109C57.1351 109 57.9026 109.853 57.9026 110.858C57.9026 111.863 57.1351 112.716 56.1678 112.716Z" fill="#231F20"/>
<path fill-rule="evenodd" clip-rule="evenodd" d="M66.2681 130.991C66.1832 131.204 66.1541 131.265 65.8984 131.265H64.7894C64.533 131.265 64.5047 131.144 64.448 130.991L60.0961 118.107H59.1575C58.9301 118.107 58.8164 117.985 58.8164 117.742V116.584C58.8164 116.34 58.9301 116.219 59.1575 116.219H63.9925C64.1923 116.219 64.306 116.34 64.306 116.584V117.65C64.306 117.893 64.1923 117.985 63.9925 117.985H62.4001L64.9028 126.148C65.1022 126.788 65.2729 127.488 65.4153 128.067H65.4716C65.614 127.336 65.7277 126.91 65.9837 126.179L68.7428 117.985H67.0364C66.8086 117.985 66.7233 117.893 66.7233 117.65V116.584C66.7233 116.34 66.8086 116.219 67.0364 116.219H71.786C72.0134 116.219 72.1274 116.34 72.1274 116.584V117.742C72.1274 117.985 72.0134 118.107 71.786 118.107H70.9611L66.2681 130.991Z" fill="#231F20"/>
<path fill-rule="evenodd" clip-rule="evenodd" d="M73.6059 117.589C73.5489 117.437 73.5202 117.345 73.5202 117.193C73.5202 116.676 76.1373 115.792 77.9571 115.792C81.2283 115.792 82.3369 117.498 82.3369 120.057V125.905C82.3369 127.824 82.4227 128.098 82.6787 128.951H84.0154C84.2428 128.951 84.3565 129.072 84.3565 129.317V130.473C84.3565 130.717 84.2428 130.839 84.0154 130.839H81.5977C80.8865 130.839 80.6592 129.712 80.5171 129.224C80.1761 129.559 78.782 131.265 76.4217 131.265C74.174 131.265 72.724 129.681 72.724 126.971C72.724 121.823 78.4122 121.732 80.1761 121.671V120.574C80.1761 118.808 79.6635 117.834 77.6447 117.834C75.7388 117.834 74.4308 118.808 74.174 118.808C74.089 118.808 74.0037 118.747 73.9753 118.655L73.6059 117.589ZM80.1761 123.559C78.9244 123.589 74.8856 123.589 74.8856 126.788C74.8856 128.006 75.5118 129.377 76.9335 129.377C78.4122 129.377 79.7209 127.915 80.1761 127.489V123.559Z" fill="#231F20"/>
<path fill-rule="evenodd" clip-rule="evenodd" d="M198.298 129.712C198.326 129.834 198.354 129.925 198.354 130.016C198.354 130.413 196.221 131.265 194.686 131.265C193.462 131.265 192.439 130.778 192.012 130.199C191.188 129.255 191.188 127.884 191.188 126.758V118.107H189.054C188.856 118.107 188.856 117.894 188.856 117.742V116.584C188.856 116.372 188.856 116.219 189.054 116.219H191.188V112.046C191.188 111.863 191.301 111.741 191.5 111.68L193.007 111.224C193.093 111.224 193.15 111.193 193.206 111.193C193.348 111.193 193.348 111.345 193.348 111.528V116.219H197.559C197.729 116.219 197.871 116.249 197.871 116.432C197.871 116.493 197.843 116.554 197.843 116.645L197.473 117.833C197.416 117.985 197.274 118.107 197.103 118.107H193.348V126.758C193.348 127.976 193.348 129.225 195.055 129.225C196.392 129.225 197.53 128.402 197.786 128.402C197.9 128.402 197.985 128.493 197.985 128.586L198.298 129.712Z" fill="#231F20"/>
<path fill-rule="evenodd" clip-rule="evenodd" d="M212.973 130.474C212.973 130.717 212.86 130.839 212.632 130.839H210.243C209.39 130.839 209.276 129.864 209.048 129.468C208.253 130.169 206.716 131.266 205.095 131.266C201.255 131.266 200.943 128.889 200.943 126.696V118.107H199.35C199.122 118.107 199.008 117.985 199.008 117.741V116.584C199.008 116.34 199.122 116.219 199.35 116.219H202.763C202.99 116.219 203.104 116.34 203.104 116.584V126.757C203.104 128.067 203.588 129.224 205.436 129.224C206.461 129.224 207.825 128.433 208.679 127.671V118.107H207.057C206.83 118.107 206.716 117.985 206.716 117.741V116.584C206.716 116.34 206.83 116.219 207.057 116.219H210.499C210.727 116.219 210.84 116.34 210.84 116.584V127.031C210.84 127.824 210.897 128.219 211.011 128.951H212.632C212.86 128.951 212.973 129.072 212.973 129.316V130.474Z" fill="#231F20"/>
<path fill-rule="evenodd" clip-rule="evenodd" d="M226.685 130.473C226.685 130.717 226.571 130.839 226.344 130.839H223.784C223.074 130.839 222.959 129.864 222.789 129.468C221.993 130.199 220.656 131.266 218.466 131.266C215.365 131.266 214.029 127.61 214.029 123.833C214.029 119.447 215.422 115.792 218.779 115.792C220.116 115.792 221.253 116.005 222.391 116.828V110.888H220.571C220.343 110.888 220.229 110.767 220.229 110.523V109.365C220.229 109.122 220.343 109 220.571 109H224.211C224.439 109 224.552 109.122 224.552 109.365V127.032C224.552 128.159 224.609 128.28 224.723 128.951H226.344C226.571 128.951 226.685 129.072 226.685 129.316V130.473ZM222.391 118.838C221.395 118.046 220.315 117.833 219.035 117.833C216.646 117.833 216.361 120.818 216.361 123.772C216.361 126.331 216.617 129.224 218.863 129.224C220.343 129.224 221.566 128.25 222.391 127.428V118.838Z" fill="#231F20"/>
<path fill-rule="evenodd" clip-rule="evenodd" d="M233.031 131.265C229.192 131.265 227.542 127.945 227.542 123.59C227.542 119.387 229.192 115.792 233.316 115.792C237.213 115.792 238.862 119.142 238.862 123.438C238.862 127.701 237.184 131.265 233.031 131.265ZM236.531 123.407C236.531 120.422 235.762 117.68 233.202 117.68C230.642 117.68 229.875 120.3 229.875 123.315C229.875 126.788 230.614 129.377 233.231 129.377C235.762 129.377 236.531 126.909 236.531 123.407Z" fill="#231F20"/>
<path fill-rule="evenodd" clip-rule="evenodd" d="M127.99 123.605C127.99 128.893 131.994 133.181 136.932 133.181C141.871 133.181 145.874 128.893 145.874 123.605C145.874 118.316 141.871 114.029 136.932 114.029C131.994 114.029 127.99 118.316 127.99 123.605Z" fill="#0066CC"/>
<path fill-rule="evenodd" clip-rule="evenodd" d="M139.875 127.993H133.99C132.432 127.993 131.164 126.636 131.164 124.968V122.241C131.164 120.573 132.432 119.217 133.99 119.217H139.875C141.433 119.217 142.7 120.573 142.7 122.24V124.967C142.7 126.636 141.433 127.993 139.875 127.993ZM133.99 120.585C133.136 120.585 132.442 121.327 132.442 122.241V124.968C132.442 125.882 133.136 126.625 133.99 126.625H139.875C140.729 126.625 141.423 125.882 141.423 124.967V122.24C141.423 121.327 140.729 120.585 139.875 120.585H133.99Z" fill="white"/>
<defs>
<clipPath id="clip0_1_58">
<rect width="277" height="43.5821" fill="white" transform="translate(0 45)"/>
</clipPath>
</defs>
</svg>
