<svg width="1000" height="90" viewBox="0 0 1000 90" fill="none" xmlns="http://www.w3.org/2000/svg">
<rect width="1000" height="90" fill="white"/>
<line x1="-4.37114e-08" y1="89.5001" x2="1000" y2="89.5" stroke="#E8E8E8"/>
<path d="M371.655 41.7468C371.9 42.3341 371.9 42.8725 371.655 43.4109C371.655 43.4598 371.607 43.5088 371.558 43.6067L363.58 57.7515C363.335 58.192 363.041 58.5346 362.65 58.7304C362.209 58.9751 361.818 59.1709 361.377 59.1709H359.517C359.028 59.1709 358.587 59.024 358.196 58.7793C357.755 58.5346 357.462 58.192 357.266 57.7515L349.288 43.5577C349.239 43.4598 349.19 43.4109 349.19 43.3619C348.945 42.8236 348.945 42.2852 349.141 41.7468C349.386 41.1595 349.729 40.8169 350.267 40.5721L352.323 39.6422C352.91 39.3975 353.497 39.3975 354.085 39.5933C354.672 39.838 355.063 40.2785 355.357 40.8658L360.349 50.8993H360.447L365.44 40.8658C365.684 40.2785 366.125 39.8869 366.712 39.6422C367.299 39.3975 367.887 39.3975 368.474 39.6422L370.628 40.5721C371.068 40.8169 371.46 41.2084 371.655 41.7468Z" fill="#660099"/>
<path d="M381.395 35.3838C381.199 35.8733 380.906 36.2648 380.563 36.6074C380.221 36.9501 379.78 37.2437 379.34 37.4395C378.85 37.6353 378.361 37.7332 377.822 37.7332C377.284 37.7332 376.794 37.6353 376.354 37.4395C375.865 37.2437 375.424 36.999 375.081 36.6564C374.739 36.3138 374.445 35.8733 374.249 35.3838C374.054 34.8944 373.956 34.405 373.956 33.8666C373.956 33.3282 374.054 32.8388 374.249 32.3983C374.445 31.9088 374.739 31.4683 375.081 31.1257C375.424 30.7831 375.816 30.4894 376.305 30.2937C376.794 30.0979 377.284 30 377.822 30C378.361 30 378.85 30.0979 379.291 30.2937C379.78 30.4894 380.221 30.7831 380.563 31.1257C380.906 31.4683 381.199 31.9088 381.395 32.3493C381.591 32.8388 381.689 33.3282 381.689 33.8666C381.689 34.405 381.591 34.8944 381.395 35.3838ZM380.465 40.3761C380.955 40.8656 381.199 41.4529 381.199 42.0892V56.7234C381.199 57.3597 380.955 57.947 380.514 58.3875C380.025 58.877 379.437 59.1217 378.801 59.1217H376.843C376.207 59.1217 375.62 58.877 375.179 58.4365C374.69 57.947 374.445 57.3597 374.445 56.7234V42.0892C374.445 41.4529 374.69 40.8656 375.13 40.4251C375.62 39.9356 376.207 39.6909 376.843 39.6909H378.801C379.437 39.6909 380.025 39.9356 380.465 40.3761Z" fill="#660099"/>
<path d="M406.504 41.7467C406.748 42.334 406.748 42.8724 406.504 43.4108C406.504 43.4597 406.455 43.5087 406.406 43.6066L398.428 57.8003C398.183 58.2408 397.889 58.5834 397.498 58.7792C397.057 59.0239 396.666 59.2197 396.225 59.2197H394.365C393.876 59.2197 393.436 59.0729 393.044 58.8282C392.603 58.5834 392.31 58.2408 392.114 57.8003L384.136 43.6066C384.087 43.5087 384.038 43.4597 384.038 43.4108C383.794 42.8724 383.794 42.334 383.989 41.7956C384.234 41.2083 384.577 40.8657 385.115 40.621L387.269 39.691C387.856 39.4463 388.443 39.4463 389.031 39.6421C389.618 39.8868 390.009 40.3273 390.303 40.9146L395.295 50.9482H395.393L400.288 40.8657C400.532 40.2784 400.973 39.8868 401.56 39.6421C402.148 39.3974 402.735 39.3974 403.322 39.6421L405.476 40.572C405.965 40.8168 406.357 41.2083 406.504 41.7467Z" fill="#660099"/>
<path d="M421.921 40.2777C423.145 40.8161 424.222 41.5502 425.103 42.4312C425.984 43.3122 426.718 44.389 427.207 45.5636C427.746 46.7872 427.99 48.0598 427.99 49.4791C427.99 50.8496 427.746 52.1711 427.207 53.3457C426.669 54.5693 425.935 55.6461 425.054 56.5271C424.173 57.4081 423.096 58.1422 421.921 58.6317C420.698 59.1701 419.425 59.4148 418.055 59.4148C416.684 59.4148 415.412 59.1701 414.188 58.6317C412.964 58.0933 411.888 57.3591 411.007 56.4781C410.126 55.5971 409.392 54.5204 408.902 53.3457C408.364 52.1221 408.119 50.8496 408.119 49.4791C408.119 48.1087 408.364 46.7872 408.902 45.6126C409.44 44.389 410.175 43.3122 411.056 42.4312C411.937 41.5502 413.013 40.8161 414.188 40.3266C415.412 39.7882 416.684 39.5435 418.055 39.5435C419.425 39.4946 420.747 39.7882 421.921 40.2777ZM419.572 53.0031C420.061 52.8073 420.502 52.5137 420.844 52.1711C421.187 51.8285 421.481 51.388 421.676 50.9475C421.872 50.458 421.97 49.9686 421.97 49.4302C421.97 48.8918 421.872 48.4024 421.676 47.9619C421.481 47.4724 421.187 47.0319 420.844 46.6893C420.502 46.3467 420.061 46.0531 419.621 45.8573C419.131 45.6615 418.642 45.5636 418.104 45.5636C417.565 45.5636 417.076 45.6615 416.635 45.8573C416.146 46.0531 415.705 46.3467 415.363 46.6893C415.02 47.0319 414.726 47.4724 414.531 47.9129C414.335 48.4024 414.237 48.8918 414.237 49.4302C414.237 49.9686 414.335 50.458 414.531 50.8985C414.726 51.388 415.02 51.8285 415.363 52.1711C415.705 52.5137 416.146 52.8073 416.586 53.0031C417.076 53.1989 417.565 53.2968 418.104 53.2968C418.593 53.2968 419.082 53.1989 419.572 53.0031Z" fill="#660099"/>
<path d="M446.931 49.087C446.784 48.6465 446.54 47.9124 446.442 47.374H446.393C446.393 47.8634 446.344 48.6465 446.295 49.087L445.805 57.5054C445.708 58.6311 444.827 59.4142 443.701 59.3163L442.184 59.2184C441.107 59.1205 440.471 58.2885 440.568 57.2117L442.086 41.6475C442.184 40.5218 443.016 39.6898 444.19 39.6898H445.854C446.882 39.6898 447.861 39.9834 448.253 41.0113L451.63 50.017H451.728L455.252 41.0113C455.741 39.8366 456.72 39.445 457.993 39.5919L459.706 39.7877C460.635 39.8855 461.223 40.4239 461.321 41.7454L462.789 57.2607C462.887 58.2885 462.055 59.2184 460.929 59.2674L459.608 59.3163C458.482 59.3653 457.65 58.6311 457.552 57.5543L457.063 49.136C457.014 48.6955 457.014 47.9613 457.014 47.4229H456.965C456.867 47.9124 456.573 48.6955 456.377 49.136L454.322 54.0304C454.028 54.8135 453.392 55.5476 452.217 55.5476H450.847C449.966 55.5476 449.134 55.205 448.742 54.1283L446.931 49.087Z" fill="#660099"/>
<path d="M472.284 44.194V47.1306H477.619C478.402 47.1306 478.99 47.7179 478.99 48.501V49.9694C478.99 50.8014 478.402 51.3398 477.619 51.3398H472.284V54.6191H480.605C481.486 54.6191 482.122 55.2553 482.122 56.0874V57.5067C482.122 58.3388 481.486 58.9751 480.605 58.9751H468.907C467.732 58.9751 466.754 58.0451 466.754 56.8215V42.383C466.754 41.0126 467.879 39.838 469.299 39.838H480.556C481.437 39.838 482.073 40.4742 482.073 41.3063V42.7257C482.073 43.5577 481.437 44.194 480.556 44.194H472.284Z" fill="#660099"/>
<path d="M497.49 41.3538C497.49 40.326 498.371 39.6408 499.399 39.6408H501.161C502.189 39.6408 503.119 40.375 503.119 41.3538V50.8C503.119 56.5754 499.595 59.3653 494.015 59.3653C488.436 59.3653 485.401 56.6244 485.401 50.8V41.3538C485.401 40.326 486.282 39.6408 487.31 39.6408H489.072C490.1 39.6408 490.981 40.375 490.981 41.3538V50.2127C490.981 53.2472 491.764 54.6177 494.162 54.6177C496.609 54.6177 497.392 53.2472 497.392 50.2127V41.3538H497.49Z" fill="#660099"/>
<path d="M520.494 57.4075C520.494 58.4353 519.613 59.1205 518.585 59.1205H517.362C516.285 59.1205 515.404 58.3864 515.404 57.4075V41.5496C515.404 40.5218 516.285 39.6408 517.362 39.6408H519.173C520.103 39.6408 520.69 39.9345 521.277 40.7665L528.227 50.8H528.325V41.3538C528.325 40.326 529.157 39.6408 530.234 39.6408H531.409C532.534 39.6408 533.366 40.375 533.366 41.3538V57.2607C533.366 58.2395 532.828 58.7779 532.192 58.9248L530.674 59.2184C529.353 59.5121 528.57 58.9248 527.885 57.9948L520.641 47.9613H520.543V57.4075H520.494Z" fill="#660099"/>
<path d="M543.645 44.194V47.1306H548.98C549.763 47.1306 550.35 47.7179 550.35 48.501V49.9694C550.35 50.8014 549.763 51.3398 548.98 51.3398H543.645V54.6191H551.965C552.846 54.6191 553.483 55.2553 553.483 56.0874V57.5067C553.483 58.3388 552.846 58.9751 551.965 58.9751H540.268C539.093 58.9751 538.114 58.0451 538.114 56.8215V42.383C538.114 41.0126 539.24 39.838 540.659 39.838H551.867C552.748 39.838 553.385 40.4742 553.385 41.3063V42.7257C553.385 43.5577 552.748 44.194 551.867 44.194H543.645Z" fill="#660099"/>
<path d="M566.55 52.1717C565.767 52.1717 565.18 51.6333 565.18 50.8012V49.3329C565.18 48.5498 565.767 47.9625 566.55 47.9625H571.494C572.57 47.9625 573.403 48.8435 573.403 49.9203V56.1361C573.403 56.7235 573.207 57.2619 572.619 57.6534C571.689 58.3386 568.998 59.3664 565.18 59.3664C558.768 59.3664 555.195 55.4509 555.195 49.6266C555.195 43.6065 560.041 39.4462 565.669 39.4462C568.41 39.4462 570.368 39.9357 572.277 41.1593C573.06 41.6487 573.451 42.5786 572.864 43.4596L572.228 44.4385C571.738 45.2706 570.808 45.5642 569.927 45.1237C568.557 44.3896 567.236 44.0959 566.11 44.0959C562.782 44.0959 560.53 45.7111 560.53 49.6755C560.53 53.0527 562.439 55.0104 565.767 55.0104C566.697 55.0104 567.285 54.9615 568.263 54.7168V52.1717H566.55Z" fill="#660099"/>
<path d="M586.666 39.4465C592.246 39.4465 596.896 43.6068 596.896 49.4311C596.896 55.2555 592.246 59.3668 586.666 59.3668C581.087 59.3668 576.437 55.2065 576.437 49.4311C576.437 43.6557 581.038 39.4465 586.666 39.4465ZM586.666 54.6192C589.456 54.6192 591.512 52.4657 591.512 49.4311C591.512 46.3476 589.456 44.1941 586.666 44.1941C583.828 44.1941 581.772 46.3476 581.772 49.4311C581.772 52.4657 583.828 54.6192 586.666 54.6192ZM590.582 34.65C591.267 33.5243 590.827 32.6923 589.554 32.4475L587.841 32.1049C587.009 31.9581 586.128 32.2028 585.737 33.0838L584.807 35.531C584.464 36.5588 584.562 37.4398 585.932 37.7335L586.96 37.9293C587.792 38.0272 588.673 37.9293 589.114 37.0483L590.582 34.65Z" fill="#660099"/>
<path d="M609.67 54.6685C611.138 54.6685 611.971 54.4238 613.635 53.5428C614.467 53.1023 615.494 53.1512 615.984 54.0322L616.571 55.1579C617.061 56.0879 616.816 56.871 616.082 57.4583C615.152 58.1435 612.9 59.3182 609.083 59.3182C603.503 59.3182 599.343 55.4026 599.343 49.5783C599.343 43.5582 603.993 39.3979 609.621 39.3979C612.166 39.3979 614.075 39.9363 615.935 41.111C616.767 41.6494 617.061 42.5304 616.522 43.4114L615.886 44.3902C615.299 45.3202 614.369 45.4181 613.537 44.9776C612.264 44.2924 611.138 44.0476 609.964 44.0476C606.978 44.0476 604.629 45.6138 604.629 49.2357C604.58 52.4171 606.636 54.6685 609.67 54.6685Z" fill="#660099"/>
<path d="M624.158 59.1695H622.298C621.27 59.1695 620.34 58.4353 620.34 57.4564V41.3538C620.34 40.326 621.27 39.6408 622.298 39.6408H624.158C625.234 39.6408 626.115 40.375 626.115 41.3538V57.4075C626.115 58.4353 625.234 59.1695 624.158 59.1695Z" fill="#660099"/>
<path d="M639.771 39.4462C645.35 39.4462 650 43.6065 650 49.4308C650 55.2552 645.35 59.3664 639.771 59.3664C634.191 59.3664 629.541 55.2062 629.541 49.4308C629.541 43.6554 634.142 39.4462 639.771 39.4462ZM639.771 54.6189C642.561 54.6189 644.616 52.4653 644.616 49.4308C644.616 46.3473 642.561 44.1938 639.771 44.1938C636.932 44.1938 634.876 46.3473 634.876 49.4308C634.876 52.4653 636.932 54.6189 639.771 54.6189Z" fill="#660099"/>
</svg>
