<svg width="82" height="25" viewBox="0 0 82 25" fill="none" xmlns="http://www.w3.org/2000/svg">
<path fill-rule="evenodd" clip-rule="evenodd" d="M8.15698 7.48344L8.28654 7.36275C8.10457 7.03411 8.03138 6.45655 8.04424 6.10528C8.10852 3.22289 10.9093 1.58289 15.2844 1.58289H17.6965C16.2892 2.48047 15.1134 3.65929 14.2085 5.88977C13.8208 6.84554 11.9684 12.0015 11.2139 14.3236C10.2724 17.0799 9.67405 18.3331 8.92838 18.7899L9.05496 19.0399C11.1506 19.18 12.3986 18.0141 13.2027 15.858C13.9721 13.8258 14.9828 10.5781 15.4822 9.13529C17.0903 4.49868 17.7964 2.54836 19.0821 1.58289C20.8691 1.57427 22.5939 1.57427 22.5939 1.57427C24.5164 1.51932 25.3363 0.997791 25.9396 0.185334L25.8021 0C25.3195 0.27908 24.2781 0.33942 23.392 0.344808H14.7128C9.82537 0.344808 6.83176 2.09148 6.34322 4.69264C6.10488 5.95335 6.74573 7.31857 8.15698 7.48344ZM41.0015 23.2735C20.6644 23.2735 0 23.5429 0 23.8716C0 24.197 20.6644 24.4771 41.0015 24.4771C61.3405 24.4771 82 24.197 82 23.8716C82 23.5429 61.3405 23.2735 41.0015 23.2735ZM61.1151 3.78536C61.6748 3.77781 62.2355 3.21534 62.3552 2.54189C62.4917 1.85227 62.1228 1.3189 61.564 1.33829C61.0063 1.33829 60.4524 1.89429 60.3189 2.58499C60.2002 3.25952 60.5454 3.79829 61.1151 3.78536ZM33.1036 6.22273C33.4033 6.22273 33.5259 6.44901 33.5259 6.73671C33.515 8.09763 31.9811 9.84322 29.9983 11.1126C30.4977 9.00275 31.8852 6.2001 33.1036 6.22273ZM27.2984 13.3139C27.2855 14.7287 27.9699 15.9065 29.7184 15.8386C31.5885 15.7879 33.2984 14.6027 34.772 12.9153C34.4011 13.9982 34.0886 14.9313 33.8918 15.4302C33.3469 16.9247 32.9424 18.1305 32.1008 18.8277L32.1938 19.0141C34.6612 19.1703 35.5869 17.276 36.6095 14.1867C37.6212 11.0975 38.4826 8.41119 39.1511 6.54922C40.235 6.54922 41.764 6.59124 42.6264 6.37897C40.3854 7.46404 38.4826 11.3572 38.7051 13.9238C38.804 15.0574 39.431 15.8386 40.7562 15.8386C43.3255 15.8386 45.4894 12.5273 46.3093 10.341C46.784 9.08895 47.1004 8.01789 47.1499 6.94036C47.762 6.82722 48.3436 6.713 48.6363 6.66451C49.2 6.58047 49.0912 7.25823 48.9132 7.7679C47.86 10.966 46.0472 15.6069 46.0353 15.6824H48.0419C48.9132 13.7083 49.4522 12.4465 50.1415 11.1072C50.9821 9.52751 52.8473 6.92743 53.593 6.91773C53.8541 6.91773 53.9243 7.10092 53.858 7.37784C53.7265 8.45106 51.3233 12.5543 51.3648 14.5757C51.3876 15.8979 52.0245 16.6985 53.14 17.0023L53.3774 16.8569C53.233 16.5681 53.2142 16.2071 53.2112 15.788C53.1954 14.4335 54.2002 12.0694 54.5918 11.1503C55.2099 9.71177 56.3166 7.6052 56.2444 6.45655C56.2127 5.88977 55.8211 5.38657 54.937 5.37902C53.2993 5.36933 51.6675 7.10091 50.2997 9.42299L50.2671 9.41544C50.814 8.0653 51.2402 6.81214 51.2254 6.2001C51.2135 5.64625 50.9218 5.42213 50.3116 5.42213C49.8824 5.43398 49.2959 5.61716 48.7095 5.78956C47.9035 6.01476 47.052 6.25182 46.1164 6.46733C45.5468 6.54922 45.346 6.66452 45.3628 6.88972C45.4785 10.4391 43.2613 14.6113 41.7818 14.6253C41.1488 14.6253 41.0074 14.121 41.0074 13.4206C41.0015 10.966 42.8528 6.84554 44.6577 6.19364C44.8159 6.14623 44.9732 6.10528 45.079 6.06972L45.3045 5.40704C44.9227 5.49647 44.0089 5.51048 43.5322 5.52233H39.5586C40.6089 2.79834 42.0804 1.03874 44.2344 0.932061C45.5715 0.88465 46.4774 1.43742 46.5565 2.2682C46.6099 2.98368 46.4309 3.55585 45.9097 4.14741L46.0541 4.31012C47.2359 3.70131 48.0518 2.66796 48.0548 1.95895C48.0726 0.86849 46.8641 0.19611 44.9346 0.218738C42.4849 0.237056 39.4696 0.839394 37.3562 5.60423C36.7252 5.70551 36.1565 5.96735 35.6799 6.52336L35.7649 6.73671C36.1081 6.60094 36.5165 6.58047 36.9715 6.58047C36.6787 7.36275 36.0883 9.05447 35.5058 10.799C33.7316 13.3538 31.9465 14.5757 30.6361 14.5757C29.9251 14.5973 29.6403 14.1695 29.6323 13.4206C29.6254 12.9508 29.7283 12.2946 29.8153 11.9519C31.2127 11.1912 32.6161 10.3313 33.8879 8.91009C34.5831 8.08793 35.0677 7.25823 35.0855 6.40375C35.0974 5.60422 34.6444 5.19153 33.7138 5.17645C32.3846 5.16028 30.7835 6.15592 29.7392 7.36275C28.3764 8.98336 27.3202 11.2742 27.2984 13.3139ZM72.6483 6.55568C73.2338 6.25182 73.7243 6.23566 74.1338 6.32509C73.9795 6.6796 73.2734 8.22693 72.7255 9.62341C71.8562 11.8065 70.5527 14.0079 69.3452 14.3236C68.9328 14.454 68.6826 14.2579 68.6895 13.8053C68.7281 11.869 70.6783 7.55886 72.6483 6.55568ZM55.4987 14.3538C55.4987 15.3192 56.0614 15.9183 57.1355 15.8795C58.249 15.858 59.3844 15.1382 60.3189 14.1544C60.4999 15.1953 61.1872 15.956 62.5945 15.8979C64.0612 15.8386 65.4586 14.8397 66.4327 13.6814V14.0154C66.4327 15.0908 66.9391 15.8914 68.0625 15.8914C69.276 15.8914 70.6665 14.8958 71.7711 13.1954L71.8058 13.2105C71.7039 13.6135 71.5842 14.302 71.5694 14.7589C71.5476 16.0487 72.2547 16.7879 73.2259 17.0023L73.4633 16.9C73.1082 15.9604 73.6067 13.6372 73.8124 12.8646C74.5373 10.3206 75.6924 7.41232 76.3609 5.90055C76.0573 5.61716 75.3463 5.42535 74.5857 5.38656C72.0668 5.28635 69.5331 6.41884 67.6837 9.97899C67.3673 10.6029 67.0221 11.3173 66.768 12.0694C66.5019 12.4508 66.227 12.7892 66.1113 12.9153C65.4398 13.6135 64.4953 14.5111 63.5311 14.5272C62.9792 14.538 62.6796 14.1189 62.6895 13.3721C62.7023 10.5221 65.0106 6.19364 66.5791 6.18071C67.0103 6.18071 67.1932 6.38328 67.1932 6.78412C67.1932 7.25823 66.8946 7.90906 66.4742 8.33145L66.6562 8.51463C67.7095 8.07284 68.6826 7.27547 68.6895 6.42638C68.6895 5.45768 67.665 5.27773 66.7571 5.28636C65.5328 5.30467 64.0117 5.95981 62.7854 7.41232C61.2535 9.23442 60.4663 11.4186 60.3071 12.981C59.6098 13.8743 58.8276 14.4788 58.3044 14.4863C58.0107 14.4971 57.7961 14.3236 57.7961 13.9906C57.7961 13.69 57.9533 13.0844 58.2233 12.2946C58.8998 10.4596 59.8808 8.16767 61.0824 5.4523C61.0824 5.4523 59.2508 5.78956 58.9878 5.8693C58.7119 5.94257 58.4973 6.14622 58.3736 6.41884C57.5894 8.22693 56.6568 10.3206 56.0832 11.8808C55.7183 12.8646 55.4987 13.7934 55.4987 14.3538ZM22.2299 6.22273C22.5326 6.22273 22.6384 6.44901 22.6384 6.73671C22.6384 8.09763 21.0946 9.84322 19.1236 11.1126C19.6211 9.00275 21.0115 6.2001 22.2299 6.22273ZM24.0556 10.882C22.8273 12.8161 21.1144 14.5757 19.6438 14.5757C19.0158 14.5973 18.7419 14.2072 18.7527 13.4206C18.7527 12.9508 18.8566 12.2881 18.9397 11.9519C20.3301 11.1912 21.7473 10.3313 23.0073 8.91009C23.7134 8.08793 24.1812 7.25823 24.2049 6.40375C24.2158 5.60422 23.7529 5.19153 22.8352 5.17645C21.5021 5.16028 19.9039 6.15592 18.8635 7.36275C17.4958 8.98336 16.4475 11.2742 16.4218 13.3139C16.4069 14.7589 17.0369 15.9065 18.7419 15.8386C20.5675 15.7879 22.3654 14.2492 23.2881 13.1383C23.1803 13.6135 23.0992 14.0618 23.0992 14.4281C23.0992 15.7125 23.6887 16.6198 24.8438 17.0088L25.0762 16.8892C24.9714 16.5444 24.9437 16.1812 24.9714 15.775C25.0544 14.5272 25.5064 13.1189 26.1739 11.2656C27.4517 7.76791 29.308 3.76488 30.1248 1.4051L28.1766 1.80378C27.875 1.87382 27.6811 2.12597 27.5812 2.36733C26.6417 4.54178 25.6785 6.86063 24.4749 9.88525C24.3374 10.2042 24.2049 10.5458 24.0556 10.882Z" fill="#004250"/>
</svg>
